<svg xmlns="http://www.w3.org/2000/svg" xmlns:xlink="http://www.w3.org/1999/xlink" width="500" zoomAndPan="magnify" viewBox="0 0 375 374.999991" height="500" preserveAspectRatio="xMidYMid meet" version="1.0"><defs><g/><clipPath id="id1"><path d="M 26 119 L 125.421875 119 L 125.421875 229.667969 L 26 229.667969 Z M 26 119 " clip-rule="nonzero"/></clipPath></defs><g clip-path="url(#id1)"><path fill="rgb(100%, 100%, 100%)" d="M 89.199219 229.667969 C 88.546875 229.636719 87.929688 229.394531 87.382812 229.019531 C 84.8125 227.203125 81.96875 221.484375 81.625 215.082031 C 81.351562 209.605469 81.457031 198.582031 81.558594 192.488281 C 78.988281 202.105469 72.960938 224.054688 70.628906 225.800781 C 69.773438 226.519531 68.574219 226.691406 67.546875 226.210938 C 65.664062 225.355469 64.191406 222.546875 63.914062 219.226562 C 63.710938 216.863281 64.53125 214.226562 65.355469 211.421875 C 66.175781 208.679688 67.066406 205.875 67.066406 203.066406 C 67.066406 199.09375 69.738281 192.246094 71.488281 188.105469 C 65.21875 195.535156 48.601562 214.535156 42.882812 214.535156 L 42.777344 214.535156 C 42.09375 214.535156 41.476562 214.195312 41.101562 213.644531 C 39.285156 210.976562 39.523438 207.3125 41.855469 202.792969 C 43.839844 198.890625 46.925781 195.363281 48.535156 193.582031 C 51.652344 190.226562 62.203125 182.488281 66.347656 179.511719 C 61.378906 180.195312 48.738281 182.007812 44.320312 183.414062 C 43.53125 183.652344 42.640625 183.960938 41.683594 184.304688 C 36.785156 185.945312 30.722656 188 28.046875 186.460938 C 27.363281 186.050781 26.882812 185.363281 26.746094 184.613281 C 25.789062 179.476562 34.488281 176.53125 44.011719 174.101562 C 51.960938 172.082031 62.375 170.882812 65.867188 170.503906 C 62.855469 167.972656 53.261719 160.027344 48.601562 157.289062 C 42.917969 153.96875 36.886719 143.765625 38.667969 140.511719 C 40.003906 138.082031 43.226562 139.039062 46.066406 139.929688 C 46.992188 140.238281 47.953125 140.480469 48.945312 140.648438 C 51.6875 141.027344 66.109375 158.144531 71.144531 164.171875 L 70.183594 160.679688 C 69.398438 157.769531 62.921875 139.109375 60.351562 131.851562 C 59.632812 129.660156 58.878906 127.8125 58.261719 126.339844 C 57.0625 123.394531 56.378906 121.75 56.894531 120.65625 C 57.167969 120.140625 57.648438 119.765625 58.195312 119.628906 C 59.769531 119.113281 63.746094 118.667969 66.863281 125.242188 C 68.953125 129.625 77.894531 153.011719 80.152344 159 C 81.933594 153.558594 88.273438 134.179688 89.574219 131.441406 C 91.21875 127.980469 93.101562 128.085938 93.820312 128.324219 C 96.046875 129.007812 97.144531 132.773438 96.460938 137.5 C 95.980469 140.71875 90.839844 160.507812 89.335938 166.191406 C 93.992188 162.460938 110.367188 149.449219 113.792969 147.328125 C 116.226562 145.785156 119.273438 147.050781 120.75 149.074219 C 121.945312 150.785156 122.289062 153.386719 119.515625 155.613281 C 115.0625 159.207031 97.726562 169.375 92.761719 172.25 C 98.652344 173.039062 119.753906 175.882812 122.699219 176.601562 C 124.277344 176.90625 125.304688 178.484375 124.960938 180.058594 C 124.617188 182.078125 122.425781 183.960938 118.316406 183.515625 C 112.765625 182.933594 98.753906 180.433594 94.128906 179.613281 C 97.589844 183.414062 108.519531 195.535156 110.882812 198.71875 C 113.144531 201.765625 117.289062 208.476562 116.636719 212.035156 C 116.535156 212.789062 116.125 213.472656 115.472656 213.886719 C 111.773438 216.316406 108.277344 211.832031 105.296875 207.484375 C 102.695312 203.648438 92.28125 190.636719 88.992188 186.527344 C 89.265625 191.425781 90.089844 206.113281 90.089844 210.5625 C 90.15625 212.753906 90.363281 214.980469 90.671875 217.136719 C 91.492188 224.257812 91.871094 228.984375 89.746094 229.636719 C 89.609375 229.667969 89.402344 229.667969 89.199219 229.667969 Z M 82.792969 183.824219 L 82.6875 188.242188 C 82.6875 188.445312 82.3125 207.3125 82.6875 215.050781 C 82.996094 221.074219 85.667969 226.554688 88 228.195312 C 88.410156 228.472656 88.992188 228.777344 89.503906 228.609375 C 90.980469 228.164062 90.226562 221.589844 89.710938 217.242188 C 89.402344 215.015625 89.199219 212.789062 89.128906 210.53125 C 89.128906 205.257812 87.964844 185.160156 87.964844 184.953125 L 87.863281 183.34375 L 88.855469 184.578125 C 88.992188 184.75 103.105469 202.246094 106.222656 206.832031 C 109.582031 211.761719 112.355469 214.671875 114.992188 212.960938 C 115.402344 212.6875 115.644531 212.277344 115.710938 211.796875 C 116.226562 208.851562 112.5625 202.550781 110.128906 199.265625 C 107.421875 195.601562 92.554688 179.304688 92.417969 179.132812 L 91.390625 178.003906 L 92.898438 178.277344 C 93.101562 178.3125 111.875 181.769531 118.488281 182.453125 C 121.914062 182.832031 123.726562 181.394531 124.003906 179.851562 C 124.207031 178.824219 123.558594 177.796875 122.53125 177.59375 C 122.53125 177.59375 122.53125 177.59375 122.496094 177.59375 C 119.171875 176.769531 91.457031 173.109375 91.183594 173.074219 L 89.675781 172.867188 L 90.980469 172.113281 C 91.21875 171.976562 113.863281 158.863281 118.898438 154.824219 C 120.75 153.316406 121.160156 151.402344 119.925781 149.6875 C 118.726562 148.046875 116.226562 147.050781 114.375 148.214844 C 110.503906 150.648438 89.027344 167.835938 88.785156 168.007812 L 87.554688 168.964844 L 87.964844 167.457031 C 88.03125 167.183594 94.917969 140.992188 95.433594 137.363281 C 96.082031 132.707031 94.953125 129.761719 93.515625 129.316406 C 92.519531 129.007812 91.390625 129.96875 90.5 131.886719 C 89.027344 134.964844 80.734375 160.441406 80.667969 160.714844 L 80.222656 162.117188 L 79.707031 160.746094 C 79.605469 160.441406 68.265625 130.582031 65.9375 125.6875 C 63.984375 121.578125 61.277344 119.730469 58.503906 120.585938 C 58.023438 120.722656 57.886719 120.929688 57.816406 121.066406 C 57.476562 121.785156 58.195312 123.53125 59.1875 125.960938 C 59.804688 127.433594 60.558594 129.28125 61.347656 131.507812 C 63.914062 138.800781 70.425781 157.496094 71.210938 160.441406 L 73.40625 168.554688 L 71.898438 166.707031 C 64.085938 157.152344 50.933594 141.949219 48.878906 141.675781 C 47.847656 141.507812 46.855469 141.230469 45.863281 140.925781 C 43.257812 140.136719 40.585938 139.316406 39.660156 141.027344 C 38.394531 143.355469 43.363281 153.011719 49.21875 156.433594 C 54.835938 159.71875 67.03125 170.09375 67.546875 170.539062 L 68.472656 171.328125 L 67.273438 171.429688 C 67.136719 171.429688 53.980469 172.695312 44.390625 175.128906 C 35.722656 177.285156 27.019531 180.125 27.84375 184.40625 C 27.910156 184.886719 28.21875 185.332031 28.632812 185.570312 C 30.859375 186.90625 36.957031 184.851562 41.410156 183.378906 C 42.367188 183.070312 43.257812 182.761719 44.082031 182.488281 C 49.699219 180.742188 67.582031 178.378906 68.335938 178.277344 L 70.390625 178.003906 L 68.710938 179.203125 C 68.574219 179.304688 53.089844 190.296875 49.355469 194.335938 C 46.648438 197.246094 38.085938 207.277344 42.027344 213.097656 C 42.195312 213.371094 42.539062 213.542969 42.847656 213.542969 C 44.320312 213.613281 48.535156 211.832031 60.285156 199.230469 C 67.035156 192.007812 73.0625 184.644531 73.097656 184.578125 L 75.804688 181.257812 L 73.953125 185.089844 C 73.882812 185.226562 68.09375 197.449219 68.09375 203.03125 C 68.09375 205.976562 67.203125 208.886719 66.347656 211.695312 C 65.527344 214.398438 64.738281 216.933594 64.945312 219.089844 C 65.183594 221.964844 66.484375 224.566406 67.992188 225.21875 C 68.675781 225.527344 69.464844 225.390625 70.046875 224.910156 C 71.964844 223.472656 78.0625 202.074219 81.695312 188.035156 Z M 82.792969 183.824219 " fill-opacity="1" fill-rule="nonzero"/></g><g fill="rgb(100%, 100%, 100%)" fill-opacity="1"><g transform="translate(140.198755, 164.829268)"><g><path d="M 26.15625 -32.421875 C 25.363281 -33.203125 24.34375 -33.875 23.09375 -34.4375 C 21.84375 -35.007812 20.242188 -35.296875 18.296875 -35.296875 C 15.410156 -35.296875 12.894531 -34.78125 10.75 -33.75 C 8.613281 -32.726562 6.832031 -31.375 5.40625 -29.6875 C 3.988281 -28.007812 2.921875 -26.09375 2.203125 -23.9375 C 1.484375 -21.78125 1.125 -19.570312 1.125 -17.3125 C 1.125 -15.050781 1.484375 -12.847656 2.203125 -10.703125 C 2.921875 -8.566406 3.988281 -6.660156 5.40625 -4.984375 C 6.832031 -3.304688 8.613281 -1.953125 10.75 -0.921875 C 12.894531 0.0976562 15.390625 0.609375 18.234375 0.609375 C 19.535156 0.609375 20.691406 0.460938 21.703125 0.171875 C 22.710938 -0.109375 23.585938 -0.453125 24.328125 -0.859375 C 25.066406 -1.273438 25.675781 -1.707031 26.15625 -2.15625 C 26.632812 -2.601562 26.992188 -2.976562 27.234375 -3.28125 L 29.28125 -0.359375 C 29.519531 -0.015625 29.726562 0.15625 29.90625 0.15625 C 30.070312 0.15625 30.15625 -0.03125 30.15625 -0.40625 L 30.15625 -12.125 C 30.15625 -12.570312 30.019531 -12.796875 29.75 -12.796875 C 29.507812 -12.796875 29.335938 -12.570312 29.234375 -12.125 C 29.128906 -11.570312 28.972656 -10.894531 28.765625 -10.09375 C 28.566406 -9.289062 28.296875 -8.453125 27.953125 -7.578125 C 27.609375 -6.703125 27.171875 -5.828125 26.640625 -4.953125 C 26.109375 -4.078125 25.445312 -3.296875 24.65625 -2.609375 C 23.875 -1.929688 22.957031 -1.378906 21.90625 -0.953125 C 20.863281 -0.523438 19.640625 -0.3125 18.234375 -0.3125 C 16.972656 -0.3125 15.882812 -0.5 14.96875 -0.875 C 14.0625 -1.25 13.304688 -1.957031 12.703125 -3 C 12.109375 -4.050781 11.675781 -5.515625 11.40625 -7.390625 C 11.132812 -9.273438 11 -11.726562 11 -14.75 L 11 -19.875 C 11 -22.925781 11.097656 -25.398438 11.296875 -27.296875 C 11.503906 -29.203125 11.878906 -30.675781 12.421875 -31.71875 C 12.972656 -32.769531 13.742188 -33.472656 14.734375 -33.828125 C 15.734375 -34.191406 17.039062 -34.375 18.65625 -34.375 C 19.914062 -34.375 21.039062 -34.15625 22.03125 -33.71875 C 23.03125 -33.289062 23.929688 -32.664062 24.734375 -31.84375 C 25.535156 -31.03125 26.242188 -30.039062 26.859375 -28.875 C 27.484375 -27.707031 28.050781 -26.390625 28.5625 -24.921875 C 28.664062 -24.578125 28.851562 -24.40625 29.125 -24.40625 C 29.363281 -24.40625 29.484375 -24.578125 29.484375 -24.921875 L 29.484375 -34.015625 C 29.484375 -34.554688 29.28125 -34.828125 28.875 -34.828125 C 28.601562 -34.828125 28.347656 -34.675781 28.109375 -34.375 Z M 26.15625 -32.421875 "/></g></g></g><g fill="rgb(100%, 100%, 100%)" fill-opacity="1"><g transform="translate(172.257313, 164.829268)"><g><path d="M 16.03125 -34.984375 L 5.65625 -3.5 C 5.414062 -2.78125 4.976562 -2.15625 4.34375 -1.625 C 3.707031 -1.09375 2.84375 -0.828125 1.75 -0.828125 L 1.75 0 L 9.5 0 L 9.5 -0.828125 C 8.882812 -0.828125 8.390625 -0.882812 8.015625 -1 C 7.640625 -1.125 7.347656 -1.28125 7.140625 -1.46875 C 6.929688 -1.65625 6.789062 -1.859375 6.71875 -2.078125 C 6.65625 -2.304688 6.625 -2.503906 6.625 -2.671875 C 6.625 -2.878906 6.628906 -3.054688 6.640625 -3.203125 C 6.660156 -3.359375 6.722656 -3.578125 6.828125 -3.859375 L 8.984375 -10.734375 L 19.3125 -10.734375 L 22.609375 -0.828125 L 19.828125 -0.828125 L 19.828125 0 L 33.65625 0 L 33.65625 -0.828125 L 30.875 -0.828125 L 19.578125 -34.984375 Z M 14.125 -26.40625 L 19.015625 -11.5625 L 9.296875 -11.5625 Z M 14.125 -26.40625 "/></g></g></g><g fill="rgb(100%, 100%, 100%)" fill-opacity="1"><g transform="translate(207.038791, 164.829268)"><g><path d="M 23.328125 -35.03125 L 21.984375 -33.03125 C 21.265625 -33.507812 20.304688 -34.003906 19.109375 -34.515625 C 17.910156 -35.035156 16.390625 -35.296875 14.546875 -35.296875 C 12.660156 -35.296875 11.003906 -34.960938 9.578125 -34.296875 C 8.160156 -33.628906 6.972656 -32.765625 6.015625 -31.703125 C 5.054688 -30.640625 4.328125 -29.421875 3.828125 -28.046875 C 3.328125 -26.679688 3.078125 -25.3125 3.078125 -23.9375 C 3.078125 -21.507812 3.660156 -19.472656 4.828125 -17.828125 C 5.992188 -16.179688 7.894531 -14.984375 10.53125 -14.234375 C 11.144531 -14.054688 11.8125 -13.878906 12.53125 -13.703125 C 13.25 -13.535156 13.957031 -13.375 14.65625 -13.21875 C 15.363281 -13.070312 16.007812 -12.929688 16.59375 -12.796875 C 17.175781 -12.660156 17.625 -12.539062 17.9375 -12.4375 C 19.539062 -11.988281 20.625 -11.316406 21.1875 -10.421875 C 21.757812 -9.535156 22.046875 -8.375 22.046875 -6.9375 C 22.046875 -6.25 21.898438 -5.519531 21.609375 -4.75 C 21.316406 -3.976562 20.867188 -3.265625 20.265625 -2.609375 C 19.671875 -1.960938 18.898438 -1.414062 17.953125 -0.96875 C 17.015625 -0.53125 15.910156 -0.3125 14.640625 -0.3125 C 12.929688 -0.3125 11.46875 -0.617188 10.25 -1.234375 C 9.03125 -1.847656 7.992188 -2.648438 7.140625 -3.640625 C 6.285156 -4.640625 5.582031 -5.753906 5.03125 -6.984375 C 4.488281 -8.222656 4.046875 -9.457031 3.703125 -10.6875 C 3.566406 -11.164062 3.410156 -11.40625 3.234375 -11.40625 C 3.128906 -11.40625 3.050781 -11.351562 3 -11.25 C 2.945312 -11.144531 2.921875 -10.921875 2.921875 -10.578125 L 2.921875 -0.515625 C 2.921875 -0.304688 2.945312 -0.117188 3 0.046875 C 3.050781 0.222656 3.164062 0.3125 3.34375 0.3125 C 3.582031 0.3125 3.851562 0.0703125 4.15625 -0.40625 L 5.75 -2.828125 C 6.09375 -2.484375 6.507812 -2.113281 7 -1.71875 C 7.5 -1.320312 8.097656 -0.953125 8.796875 -0.609375 C 9.503906 -0.273438 10.328125 0.0078125 11.265625 0.25 C 12.210938 0.488281 13.335938 0.609375 14.640625 0.609375 C 16.660156 0.609375 18.421875 0.273438 19.921875 -0.390625 C 21.429688 -1.054688 22.679688 -1.9375 23.671875 -3.03125 C 24.671875 -4.125 25.414062 -5.375 25.90625 -6.78125 C 26.40625 -8.1875 26.65625 -9.625 26.65625 -11.09375 C 26.65625 -14.25 25.875 -16.789062 24.3125 -18.71875 C 22.757812 -20.65625 20.460938 -21.914062 17.421875 -22.5 C 16.660156 -22.632812 15.734375 -22.832031 14.640625 -23.09375 C 13.546875 -23.351562 12.585938 -23.617188 11.765625 -23.890625 C 10.703125 -24.265625 9.9375 -24.867188 9.46875 -25.703125 C 9.007812 -26.546875 8.78125 -27.601562 8.78125 -28.875 C 8.78125 -29.5625 8.898438 -30.238281 9.140625 -30.90625 C 9.378906 -31.570312 9.738281 -32.160156 10.21875 -32.671875 C 10.695312 -33.179688 11.296875 -33.59375 12.015625 -33.90625 C 12.734375 -34.21875 13.578125 -34.375 14.546875 -34.375 C 15.328125 -34.375 16.132812 -34.257812 16.96875 -34.03125 C 17.8125 -33.8125 18.625 -33.410156 19.40625 -32.828125 C 20.195312 -32.242188 20.9375 -31.421875 21.625 -30.359375 C 22.3125 -29.296875 22.878906 -27.941406 23.328125 -26.296875 C 23.429688 -25.816406 23.582031 -25.578125 23.78125 -25.578125 C 23.957031 -25.578125 24.050781 -25.65625 24.0625 -25.8125 C 24.082031 -25.96875 24.09375 -26.148438 24.09375 -26.359375 L 24.09375 -34.984375 C 24.09375 -35.328125 24.007812 -35.5 23.84375 -35.5 C 23.664062 -35.5 23.492188 -35.34375 23.328125 -35.03125 Z M 23.328125 -35.03125 "/></g></g></g><g fill="rgb(100%, 100%, 100%)" fill-opacity="1"><g transform="translate(235.655162, 164.829268)"><g><path d="M 16.03125 -34.984375 L 5.65625 -3.5 C 5.414062 -2.78125 4.976562 -2.15625 4.34375 -1.625 C 3.707031 -1.09375 2.84375 -0.828125 1.75 -0.828125 L 1.75 0 L 9.5 0 L 9.5 -0.828125 C 8.882812 -0.828125 8.390625 -0.882812 8.015625 -1 C 7.640625 -1.125 7.347656 -1.28125 7.140625 -1.46875 C 6.929688 -1.65625 6.789062 -1.859375 6.71875 -2.078125 C 6.65625 -2.304688 6.625 -2.503906 6.625 -2.671875 C 6.625 -2.878906 6.628906 -3.054688 6.640625 -3.203125 C 6.660156 -3.359375 6.722656 -3.578125 6.828125 -3.859375 L 8.984375 -10.734375 L 19.3125 -10.734375 L 22.609375 -0.828125 L 19.828125 -0.828125 L 19.828125 0 L 33.65625 0 L 33.65625 -0.828125 L 30.875 -0.828125 L 19.578125 -34.984375 Z M 14.125 -26.40625 L 19.015625 -11.5625 L 9.296875 -11.5625 Z M 14.125 -26.40625 "/></g></g></g><g fill="rgb(100%, 100%, 100%)" fill-opacity="1"><g transform="translate(140.198755, 210.404218)"><g><path d="M 25.734375 -33.234375 C 25.703125 -33.785156 25.546875 -34.160156 25.265625 -34.359375 C 24.992188 -34.566406 24.601562 -34.671875 24.09375 -34.671875 L 1.75 -34.671875 L 1.75 -33.859375 L 4.515625 -33.859375 L 4.515625 -0.828125 L 1.75 -0.828125 L 1.75 0 L 15.5625 0 L 15.5625 -0.828125 L 12.796875 -0.828125 L 12.796875 -17.78125 L 15.921875 -17.78125 C 17.222656 -17.78125 18.222656 -17.347656 18.921875 -16.484375 C 19.628906 -15.628906 20.066406 -14.332031 20.234375 -12.59375 C 20.273438 -11.96875 20.445312 -11.65625 20.75 -11.65625 C 21.09375 -11.65625 21.265625 -11.96875 21.265625 -12.59375 L 21.265625 -23.78125 C 21.265625 -24.40625 21.09375 -24.71875 20.75 -24.71875 C 20.445312 -24.71875 20.273438 -24.40625 20.234375 -23.78125 C 20.066406 -22.070312 19.628906 -20.78125 18.921875 -19.90625 C 18.222656 -19.03125 17.222656 -18.59375 15.921875 -18.59375 L 12.796875 -18.59375 L 12.796875 -33.859375 L 16.75 -33.859375 C 18.082031 -33.859375 19.253906 -33.617188 20.265625 -33.140625 C 21.273438 -32.660156 22.128906 -32.035156 22.828125 -31.265625 C 23.535156 -30.492188 24.066406 -29.628906 24.421875 -28.671875 C 24.785156 -27.710938 25.003906 -26.753906 25.078125 -25.796875 C 25.078125 -25.347656 25.242188 -25.125 25.578125 -25.125 C 25.921875 -25.125 26.09375 -25.347656 26.09375 -25.796875 Z M 25.734375 -33.234375 "/></g></g></g><g fill="rgb(100%, 100%, 100%)" fill-opacity="1"><g transform="translate(169.020631, 210.404218)"><g><path d="M 2.109375 -0.828125 L 2.109375 0 L 27.4375 0 L 27.4375 -9.96875 C 27.4375 -10.507812 27.25 -10.78125 26.875 -10.78125 C 26.59375 -10.78125 26.421875 -10.59375 26.359375 -10.21875 C 26.179688 -8.914062 25.910156 -7.695312 25.546875 -6.5625 C 25.191406 -5.4375 24.710938 -4.453125 24.109375 -3.609375 C 23.515625 -2.773438 22.796875 -2.117188 21.953125 -1.640625 C 21.117188 -1.160156 20.140625 -0.921875 19.015625 -0.921875 L 13.15625 -0.921875 L 13.15625 -33.859375 L 15.921875 -33.859375 L 15.921875 -34.671875 L 2.109375 -34.671875 L 2.109375 -33.859375 L 4.875 -33.859375 L 4.875 -0.828125 Z M 2.109375 -0.828125 "/></g></g></g><g fill="rgb(100%, 100%, 100%)" fill-opacity="1"><g transform="translate(198.35627, 210.404218)"><g><path d="M 1.796875 -17.359375 C 1.796875 -15.097656 2.144531 -12.894531 2.84375 -10.75 C 3.550781 -8.613281 4.597656 -6.695312 5.984375 -5 C 7.367188 -3.3125 9.085938 -1.953125 11.140625 -0.921875 C 13.203125 0.0976562 15.585938 0.609375 18.296875 0.609375 C 20.992188 0.609375 23.367188 0.0976562 25.421875 -0.921875 C 27.484375 -1.953125 29.207031 -3.3125 30.59375 -5 C 31.976562 -6.695312 33.019531 -8.613281 33.71875 -10.75 C 34.425781 -12.894531 34.78125 -15.097656 34.78125 -17.359375 C 34.78125 -19.585938 34.425781 -21.78125 33.71875 -23.9375 C 33.019531 -26.09375 31.976562 -28.007812 30.59375 -29.6875 C 29.207031 -31.375 27.484375 -32.726562 25.421875 -33.75 C 23.367188 -34.78125 20.992188 -35.296875 18.296875 -35.296875 C 15.585938 -35.296875 13.203125 -34.78125 11.140625 -33.75 C 9.085938 -32.726562 7.367188 -31.375 5.984375 -29.6875 C 4.597656 -28.007812 3.550781 -26.09375 2.84375 -23.9375 C 2.144531 -21.78125 1.796875 -19.585938 1.796875 -17.359375 Z M 18.296875 -34.375 C 19.734375 -34.375 20.882812 -34.097656 21.75 -33.546875 C 22.625 -32.992188 23.289062 -32.132812 23.75 -30.96875 C 24.21875 -29.8125 24.53125 -28.320312 24.6875 -26.5 C 24.84375 -24.6875 24.921875 -22.5 24.921875 -19.9375 L 24.921875 -14.796875 C 24.921875 -11.953125 24.84375 -9.597656 24.6875 -7.734375 C 24.53125 -5.867188 24.21875 -4.382812 23.75 -3.28125 C 23.289062 -2.1875 22.625 -1.414062 21.75 -0.96875 C 20.882812 -0.53125 19.734375 -0.3125 18.296875 -0.3125 C 16.847656 -0.3125 15.6875 -0.53125 14.8125 -0.96875 C 13.945312 -1.414062 13.28125 -2.1875 12.8125 -3.28125 C 12.351562 -4.382812 12.046875 -5.867188 11.890625 -7.734375 C 11.734375 -9.597656 11.65625 -11.953125 11.65625 -14.796875 L 11.65625 -19.9375 C 11.65625 -22.5 11.734375 -24.6875 11.890625 -26.5 C 12.046875 -28.320312 12.351562 -29.8125 12.8125 -30.96875 C 13.28125 -32.132812 13.945312 -32.992188 14.8125 -33.546875 C 15.6875 -34.097656 16.847656 -34.375 18.296875 -34.375 Z M 18.296875 -34.375 "/></g></g></g><g fill="rgb(100%, 100%, 100%)" fill-opacity="1"><g transform="translate(234.627656, 210.404218)"><g><path d="M 28.203125 -5.703125 L 28.203125 -9.96875 C 28.203125 -11.882812 27.5625 -13.5625 26.28125 -15 C 25 -16.4375 23.019531 -17.3125 20.34375 -17.625 C 21.269531 -17.789062 22.226562 -18.035156 23.21875 -18.359375 C 24.21875 -18.691406 25.117188 -19.164062 25.921875 -19.78125 C 26.722656 -20.394531 27.390625 -21.1875 27.921875 -22.15625 C 28.453125 -23.132812 28.71875 -24.347656 28.71875 -25.796875 C 28.71875 -28.804688 27.722656 -31.035156 25.734375 -32.484375 C 23.753906 -33.941406 21 -34.671875 17.46875 -34.671875 L 1.546875 -34.671875 L 1.546875 -33.859375 L 4.3125 -33.859375 L 4.3125 -0.828125 L 1.546875 -0.828125 L 1.546875 0 L 15.359375 0 L 15.359375 -0.828125 L 12.59375 -0.828125 L 12.59375 -17.359375 L 15.203125 -17.359375 C 15.921875 -17.359375 16.5625 -17.265625 17.125 -17.078125 C 17.695312 -16.890625 18.175781 -16.546875 18.5625 -16.046875 C 18.957031 -15.554688 19.257812 -14.859375 19.46875 -13.953125 C 19.675781 -13.046875 19.78125 -11.867188 19.78125 -10.421875 L 19.78125 -6.984375 C 19.78125 -5.546875 19.941406 -4.328125 20.265625 -3.328125 C 20.585938 -2.335938 21.039062 -1.539062 21.625 -0.9375 C 22.207031 -0.34375 22.910156 0.078125 23.734375 0.328125 C 24.554688 0.585938 25.460938 0.71875 26.453125 0.71875 C 27.890625 0.71875 29.273438 0.34375 30.609375 -0.40625 C 31.953125 -1.164062 33.019531 -2.414062 33.8125 -4.15625 C 33.875 -4.289062 33.921875 -4.410156 33.953125 -4.515625 C 33.992188 -4.617188 34.015625 -4.722656 34.015625 -4.828125 C 34.015625 -5.035156 33.925781 -5.140625 33.75 -5.140625 C 33.582031 -5.140625 33.378906 -4.914062 33.140625 -4.46875 C 32.554688 -3.507812 32.003906 -2.832031 31.484375 -2.4375 C 30.972656 -2.039062 30.515625 -1.84375 30.109375 -1.84375 C 29.285156 -1.84375 28.757812 -2.210938 28.53125 -2.953125 C 28.3125 -3.691406 28.203125 -4.609375 28.203125 -5.703125 Z M 14.484375 -18.1875 L 12.59375 -18.1875 L 12.59375 -33.859375 L 14.484375 -33.859375 C 15.140625 -33.859375 15.832031 -33.78125 16.5625 -33.625 C 17.300781 -33.46875 17.96875 -33.113281 18.5625 -32.5625 C 19.164062 -32.019531 19.664062 -31.21875 20.0625 -30.15625 C 20.457031 -29.09375 20.65625 -27.65625 20.65625 -25.84375 C 20.65625 -24.125 20.457031 -22.757812 20.0625 -21.75 C 19.664062 -20.738281 19.164062 -19.96875 18.5625 -19.4375 C 17.96875 -18.914062 17.300781 -18.578125 16.5625 -18.421875 C 15.832031 -18.265625 15.140625 -18.1875 14.484375 -18.1875 Z M 14.484375 -18.1875 "/></g></g></g><g fill="rgb(100%, 100%, 100%)" fill-opacity="1"><g transform="translate(269.100894, 210.404218)"><g><path d="M 15.984375 -33.859375 L 15.984375 -34.671875 L 2.15625 -34.671875 L 2.15625 -33.859375 L 4.9375 -33.859375 L 4.9375 -0.828125 L 2.15625 -0.828125 L 2.15625 0 L 15.984375 0 L 15.984375 -0.828125 L 13.203125 -0.828125 L 13.203125 -33.859375 Z M 15.984375 -33.859375 "/></g></g></g><g fill="rgb(100%, 100%, 100%)" fill-opacity="1"><g transform="translate(287.185219, 210.404218)"><g><path d="M 16.59375 -34.671875 L 1.640625 -34.671875 L 1.640625 -33.859375 L 4.421875 -33.859375 L 4.421875 -0.828125 L 1.640625 -0.828125 L 1.640625 0 L 16.59375 0 C 18.988281 0 21.078125 -0.492188 22.859375 -1.484375 C 24.640625 -2.484375 26.117188 -3.796875 27.296875 -5.421875 C 28.484375 -7.046875 29.375 -8.898438 29.96875 -10.984375 C 30.570312 -13.078125 30.875 -15.203125 30.875 -17.359375 C 30.875 -19.515625 30.570312 -21.628906 29.96875 -23.703125 C 29.375 -25.773438 28.484375 -27.625 27.296875 -29.25 C 26.117188 -30.882812 24.640625 -32.195312 22.859375 -33.1875 C 21.078125 -34.175781 18.988281 -34.671875 16.59375 -34.671875 Z M 12.6875 -0.828125 L 12.6875 -33.859375 L 15.3125 -33.859375 C 16.238281 -33.859375 17.101562 -33.644531 17.90625 -33.21875 C 18.707031 -32.789062 19.398438 -32.007812 19.984375 -30.875 C 20.566406 -29.75 21.03125 -28.191406 21.375 -26.203125 C 21.71875 -24.210938 21.890625 -21.675781 21.890625 -18.59375 L 21.890625 -16.125 C 21.890625 -12.945312 21.71875 -10.363281 21.375 -8.375 C 21.03125 -6.382812 20.566406 -4.820312 19.984375 -3.6875 C 19.398438 -2.5625 18.722656 -1.800781 17.953125 -1.40625 C 17.179688 -1.019531 16.351562 -0.828125 15.46875 -0.828125 Z M 12.6875 -0.828125 "/></g></g></g><g fill="rgb(100%, 100%, 100%)" fill-opacity="1"><g transform="translate(319.243777, 210.404218)"><g><path d="M 16.03125 -34.984375 L 5.65625 -3.5 C 5.414062 -2.78125 4.976562 -2.15625 4.34375 -1.625 C 3.707031 -1.09375 2.84375 -0.828125 1.75 -0.828125 L 1.75 0 L 9.5 0 L 9.5 -0.828125 C 8.882812 -0.828125 8.390625 -0.882812 8.015625 -1 C 7.640625 -1.125 7.347656 -1.28125 7.140625 -1.46875 C 6.929688 -1.65625 6.789062 -1.859375 6.71875 -2.078125 C 6.65625 -2.304688 6.625 -2.503906 6.625 -2.671875 C 6.625 -2.878906 6.628906 -3.054688 6.640625 -3.203125 C 6.660156 -3.359375 6.722656 -3.578125 6.828125 -3.859375 L 8.984375 -10.734375 L 19.3125 -10.734375 L 22.609375 -0.828125 L 19.828125 -0.828125 L 19.828125 0 L 33.65625 0 L 33.65625 -0.828125 L 30.875 -0.828125 L 19.578125 -34.984375 Z M 14.125 -26.40625 L 19.015625 -11.5625 L 9.296875 -11.5625 Z M 14.125 -26.40625 "/></g></g></g><path fill="rgb(100%, 100%, 100%)" d="M 118.445312 240.007812 C 118.445312 240.007812 119.117188 193.894531 118.445312 177.449219 C 117.769531 161.003906 118.109375 150.289062 118.445312 137.007812 C 118.78125 123.722656 118.75 118.679688 118.75 118.679688 L 123.25 118.679688 C 123.25 118.679688 126.769531 144.585938 125.792969 165.421875 C 124.8125 186.253906 124.445312 216.011719 125.085938 226.726562 C 125.730469 237.441406 125.425781 240.007812 125.425781 240.007812 Z M 118.445312 240.007812 " fill-opacity="1" fill-rule="nonzero"/><g fill="rgb(100%, 100%, 100%)" fill-opacity="1"><g transform="translate(139.837593, 235.086065)"><g><path d="M 4.015625 -9.234375 L 4.78125 -9.234375 L 8.625 0 L 7.65625 0 L 6.46875 -2.890625 L 2.3125 -2.890625 L 1.125 0 L 0.15625 0 Z M 6.25 -3.59375 L 4.390625 -8.15625 L 2.515625 -3.59375 Z M 6.25 -3.59375 "/></g></g></g><g fill="rgb(100%, 100%, 100%)" fill-opacity="1"><g transform="translate(149.819531, 235.086065)"><g><path d="M 1.15625 0 L 1.15625 -9.234375 L 2.0625 -9.234375 L 2.0625 -0.8125 L 7.390625 -0.8125 L 7.390625 0 Z M 1.15625 0 "/></g></g></g><g fill="rgb(100%, 100%, 100%)" fill-opacity="1"><g transform="translate(158.592753, 235.086065)"><g><path d="M 7.390625 -0.8125 C 7.035156 -0.539062 6.648438 -0.328125 6.234375 -0.171875 C 5.816406 -0.015625 5.363281 0.0625 4.875 0.0625 C 4.226562 0.0625 3.640625 -0.0664062 3.109375 -0.328125 C 2.578125 -0.597656 2.117188 -0.953125 1.734375 -1.390625 C 1.359375 -1.828125 1.066406 -2.328125 0.859375 -2.890625 C 0.648438 -3.453125 0.546875 -4.023438 0.546875 -4.609375 C 0.546875 -5.222656 0.65625 -5.8125 0.875 -6.375 C 1.09375 -6.945312 1.394531 -7.445312 1.78125 -7.875 C 2.175781 -8.3125 2.640625 -8.65625 3.171875 -8.90625 C 3.703125 -9.164062 4.273438 -9.296875 4.890625 -9.296875 C 5.523438 -9.296875 6.109375 -9.15625 6.640625 -8.875 C 7.179688 -8.601562 7.640625 -8.25 8.015625 -7.8125 C 8.390625 -7.375 8.679688 -6.875 8.890625 -6.3125 C 9.097656 -5.75 9.203125 -5.179688 9.203125 -4.609375 C 9.203125 -3.972656 9.085938 -3.367188 8.859375 -2.796875 C 8.628906 -2.222656 8.3125 -1.71875 7.90625 -1.28125 L 9 0 L 8.09375 0 Z M 4.875 -0.75 C 5.257812 -0.75 5.617188 -0.8125 5.953125 -0.9375 C 6.285156 -1.0625 6.585938 -1.234375 6.859375 -1.453125 L 5.703125 -2.828125 L 6.609375 -2.828125 L 7.34375 -1.953125 C 7.644531 -2.316406 7.878906 -2.726562 8.046875 -3.1875 C 8.210938 -3.65625 8.296875 -4.128906 8.296875 -4.609375 C 8.296875 -5.117188 8.207031 -5.601562 8.03125 -6.0625 C 7.863281 -6.53125 7.628906 -6.941406 7.328125 -7.296875 C 7.023438 -7.648438 6.664062 -7.929688 6.25 -8.140625 C 5.832031 -8.359375 5.375 -8.46875 4.875 -8.46875 C 4.351562 -8.46875 3.878906 -8.359375 3.453125 -8.140625 C 3.035156 -7.921875 2.675781 -7.628906 2.375 -7.265625 C 2.082031 -6.898438 1.851562 -6.484375 1.6875 -6.015625 C 1.53125 -5.554688 1.453125 -5.085938 1.453125 -4.609375 C 1.453125 -4.109375 1.535156 -3.625 1.703125 -3.15625 C 1.867188 -2.695312 2.101562 -2.285156 2.40625 -1.921875 C 2.707031 -1.566406 3.066406 -1.28125 3.484375 -1.0625 C 3.898438 -0.851562 4.363281 -0.75 4.875 -0.75 Z M 4.875 -0.75 "/></g></g></g><g fill="rgb(100%, 100%, 100%)" fill-opacity="1"><g transform="translate(169.523474, 235.086065)"><g><path d="M 4.90625 -0.75 C 5.476562 -0.75 5.957031 -0.859375 6.34375 -1.078125 C 6.726562 -1.304688 7.035156 -1.597656 7.265625 -1.953125 C 7.503906 -2.316406 7.664062 -2.726562 7.75 -3.1875 C 7.84375 -3.644531 7.890625 -4.109375 7.890625 -4.578125 L 7.890625 -9.234375 L 8.796875 -9.234375 L 8.796875 -4.578125 C 8.796875 -3.953125 8.726562 -3.359375 8.59375 -2.796875 C 8.457031 -2.242188 8.234375 -1.753906 7.921875 -1.328125 C 7.617188 -0.898438 7.21875 -0.5625 6.71875 -0.3125 C 6.226562 -0.0625 5.625 0.0625 4.90625 0.0625 C 4.1875 0.0625 3.578125 -0.0664062 3.078125 -0.328125 C 2.578125 -0.597656 2.175781 -0.945312 1.875 -1.375 C 1.570312 -1.8125 1.351562 -2.304688 1.21875 -2.859375 C 1.09375 -3.410156 1.03125 -3.984375 1.03125 -4.578125 L 1.03125 -9.234375 L 1.921875 -9.234375 L 1.921875 -4.578125 C 1.921875 -4.085938 1.96875 -3.613281 2.0625 -3.15625 C 2.15625 -2.695312 2.316406 -2.289062 2.546875 -1.9375 C 2.785156 -1.582031 3.09375 -1.296875 3.46875 -1.078125 C 3.851562 -0.859375 4.332031 -0.75 4.90625 -0.75 Z M 4.90625 -0.75 "/></g></g></g><g fill="rgb(100%, 100%, 100%)" fill-opacity="1"><g transform="translate(180.532177, 235.086065)"><g><path d="M 1.15625 0 L 1.15625 -9.234375 L 2.0625 -9.234375 L 2.0625 0 Z M 1.15625 0 "/></g></g></g><g fill="rgb(100%, 100%, 100%)" fill-opacity="1"><g transform="translate(184.95142, 235.086065)"><g><path d="M 1.15625 0 L 1.15625 -9.234375 L 2.0625 -9.234375 L 2.0625 -0.8125 L 7.390625 -0.8125 L 7.390625 0 Z M 1.15625 0 "/></g></g></g><g fill="rgb(100%, 100%, 100%)" fill-opacity="1"><g transform="translate(193.724642, 235.086065)"><g><path d="M 7.359375 -0.8125 L 7.359375 0 L 1.15625 0 L 1.15625 -9.234375 L 7.234375 -9.234375 L 7.234375 -8.421875 L 2.0625 -8.421875 L 2.0625 -5.09375 L 6.578125 -5.09375 L 6.578125 -4.328125 L 2.0625 -4.328125 L 2.0625 -0.8125 Z M 7.359375 -0.8125 "/></g></g></g><g fill="rgb(100%, 100%, 100%)" fill-opacity="1"><g transform="translate(202.835788, 235.086065)"><g><path d="M 1.15625 0 L 1.15625 -9.234375 L 5.0625 -9.234375 C 5.457031 -9.234375 5.820312 -9.144531 6.15625 -8.96875 C 6.488281 -8.800781 6.773438 -8.582031 7.015625 -8.3125 C 7.265625 -8.039062 7.453125 -7.726562 7.578125 -7.375 C 7.710938 -7.03125 7.78125 -6.679688 7.78125 -6.328125 C 7.78125 -5.992188 7.726562 -5.671875 7.625 -5.359375 C 7.53125 -5.054688 7.394531 -4.78125 7.21875 -4.53125 C 7.039062 -4.28125 6.828125 -4.070312 6.578125 -3.90625 C 6.328125 -3.738281 6.046875 -3.625 5.734375 -3.5625 L 8 0 L 6.96875 0 L 4.796875 -3.40625 L 2.0625 -3.40625 L 2.0625 0 Z M 2.0625 -4.21875 L 5.078125 -4.21875 C 5.347656 -4.21875 5.59375 -4.273438 5.8125 -4.390625 C 6.039062 -4.503906 6.226562 -4.660156 6.375 -4.859375 C 6.53125 -5.054688 6.648438 -5.28125 6.734375 -5.53125 C 6.828125 -5.789062 6.875 -6.054688 6.875 -6.328125 C 6.875 -6.609375 6.820312 -6.875 6.71875 -7.125 C 6.625 -7.382812 6.492188 -7.609375 6.328125 -7.796875 C 6.160156 -7.992188 5.957031 -8.144531 5.71875 -8.25 C 5.488281 -8.363281 5.25 -8.421875 5 -8.421875 L 2.0625 -8.421875 Z M 2.0625 -4.21875 "/></g></g></g><g fill="rgb(100%, 100%, 100%)" fill-opacity="1"><g transform="translate(212.518797, 235.086065)"><g><path d="M 7.359375 -0.8125 L 7.359375 0 L 1.15625 0 L 1.15625 -9.234375 L 7.234375 -9.234375 L 7.234375 -8.421875 L 2.0625 -8.421875 L 2.0625 -5.09375 L 6.578125 -5.09375 L 6.578125 -4.328125 L 2.0625 -4.328125 L 2.0625 -0.8125 Z M 7.359375 -0.8125 "/></g></g></g><g fill="rgb(100%, 100%, 100%)" fill-opacity="1"><g transform="translate(221.629943, 235.086065)"><g><path d="M 6.546875 -7.5 C 6.285156 -7.789062 5.9375 -8.023438 5.5 -8.203125 C 5.070312 -8.390625 4.582031 -8.484375 4.03125 -8.484375 C 3.21875 -8.484375 2.625 -8.328125 2.25 -8.015625 C 1.875 -7.710938 1.6875 -7.296875 1.6875 -6.765625 C 1.6875 -6.492188 1.734375 -6.269531 1.828125 -6.09375 C 1.929688 -5.914062 2.085938 -5.757812 2.296875 -5.625 C 2.503906 -5.5 2.769531 -5.382812 3.09375 -5.28125 C 3.425781 -5.1875 3.8125 -5.09375 4.25 -5 C 4.738281 -4.894531 5.179688 -4.773438 5.578125 -4.640625 C 5.972656 -4.515625 6.304688 -4.351562 6.578125 -4.15625 C 6.859375 -3.96875 7.070312 -3.734375 7.21875 -3.453125 C 7.375 -3.179688 7.453125 -2.835938 7.453125 -2.421875 C 7.453125 -1.992188 7.367188 -1.625 7.203125 -1.3125 C 7.035156 -1 6.804688 -0.738281 6.515625 -0.53125 C 6.222656 -0.320312 5.867188 -0.164062 5.453125 -0.0625 C 5.046875 0.03125 4.601562 0.078125 4.125 0.078125 C 2.6875 0.078125 1.453125 -0.367188 0.421875 -1.265625 L 0.875 -2 C 1.039062 -1.820312 1.238281 -1.65625 1.46875 -1.5 C 1.695312 -1.351562 1.953125 -1.21875 2.234375 -1.09375 C 2.515625 -0.976562 2.8125 -0.890625 3.125 -0.828125 C 3.445312 -0.765625 3.785156 -0.734375 4.140625 -0.734375 C 4.878906 -0.734375 5.453125 -0.863281 5.859375 -1.125 C 6.273438 -1.382812 6.484375 -1.785156 6.484375 -2.328125 C 6.484375 -2.609375 6.425781 -2.847656 6.3125 -3.046875 C 6.195312 -3.242188 6.019531 -3.410156 5.78125 -3.546875 C 5.550781 -3.691406 5.257812 -3.816406 4.90625 -3.921875 C 4.5625 -4.023438 4.160156 -4.128906 3.703125 -4.234375 C 3.222656 -4.347656 2.800781 -4.460938 2.4375 -4.578125 C 2.070312 -4.703125 1.757812 -4.851562 1.5 -5.03125 C 1.25 -5.21875 1.0625 -5.4375 0.9375 -5.6875 C 0.8125 -5.945312 0.75 -6.265625 0.75 -6.640625 C 0.75 -7.066406 0.828125 -7.445312 0.984375 -7.78125 C 1.148438 -8.113281 1.378906 -8.390625 1.671875 -8.609375 C 1.972656 -8.828125 2.320312 -8.992188 2.71875 -9.109375 C 3.113281 -9.234375 3.554688 -9.296875 4.046875 -9.296875 C 4.660156 -9.296875 5.207031 -9.203125 5.6875 -9.015625 C 6.164062 -8.828125 6.601562 -8.566406 7 -8.234375 Z M 6.546875 -7.5 "/></g></g></g><g fill="rgb(100%, 100%, 100%)" fill-opacity="1"><g transform="translate(230.715095, 235.086065)"><g/></g></g><g fill="rgb(100%, 100%, 100%)" fill-opacity="1"><g transform="translate(235.225321, 235.086065)"><g><path d="M 7.359375 -0.8125 L 7.359375 0 L 1.15625 0 L 1.15625 -9.234375 L 7.234375 -9.234375 L 7.234375 -8.421875 L 2.0625 -8.421875 L 2.0625 -5.09375 L 6.578125 -5.09375 L 6.578125 -4.328125 L 2.0625 -4.328125 L 2.0625 -0.8125 Z M 7.359375 -0.8125 "/></g></g></g><g fill="rgb(100%, 100%, 100%)" fill-opacity="1"><g transform="translate(244.336473, 235.086065)"><g><path d="M 2.0625 -7.546875 L 2.0625 0 L 1.15625 0 L 1.15625 -9.234375 L 1.859375 -9.234375 L 7.96875 -1.546875 L 7.96875 -9.21875 L 8.875 -9.21875 L 8.875 0 L 8.09375 0 Z M 2.0625 -7.546875 "/></g></g></g><g fill="rgb(100%, 100%, 100%)" fill-opacity="1"><g transform="translate(255.566122, 235.086065)"><g/></g></g><g fill="rgb(100%, 100%, 100%)" fill-opacity="1"><g transform="translate(260.076354, 235.086065)"><g><path d="M 1.15625 0 L 1.15625 -9.234375 L 2.0625 -9.234375 L 2.0625 -0.8125 L 7.390625 -0.8125 L 7.390625 0 Z M 1.15625 0 "/></g></g></g><g fill="rgb(100%, 100%, 100%)" fill-opacity="1"><g transform="translate(268.84957, 235.086065)"><g><path d="M 4.015625 -9.234375 L 4.78125 -9.234375 L 8.625 0 L 7.65625 0 L 6.46875 -2.890625 L 2.3125 -2.890625 L 1.125 0 L 0.15625 0 Z M 6.25 -3.59375 L 4.390625 -8.15625 L 2.515625 -3.59375 Z M 6.25 -3.59375 "/></g></g></g><g fill="rgb(100%, 100%, 100%)" fill-opacity="1"><g transform="translate(278.831503, 235.086065)"><g><path d="M 6.546875 -7.5 C 6.285156 -7.789062 5.9375 -8.023438 5.5 -8.203125 C 5.070312 -8.390625 4.582031 -8.484375 4.03125 -8.484375 C 3.21875 -8.484375 2.625 -8.328125 2.25 -8.015625 C 1.875 -7.710938 1.6875 -7.296875 1.6875 -6.765625 C 1.6875 -6.492188 1.734375 -6.269531 1.828125 -6.09375 C 1.929688 -5.914062 2.085938 -5.757812 2.296875 -5.625 C 2.503906 -5.5 2.769531 -5.382812 3.09375 -5.28125 C 3.425781 -5.1875 3.8125 -5.09375 4.25 -5 C 4.738281 -4.894531 5.179688 -4.773438 5.578125 -4.640625 C 5.972656 -4.515625 6.304688 -4.351562 6.578125 -4.15625 C 6.859375 -3.96875 7.070312 -3.734375 7.21875 -3.453125 C 7.375 -3.179688 7.453125 -2.835938 7.453125 -2.421875 C 7.453125 -1.992188 7.367188 -1.625 7.203125 -1.3125 C 7.035156 -1 6.804688 -0.738281 6.515625 -0.53125 C 6.222656 -0.320312 5.867188 -0.164062 5.453125 -0.0625 C 5.046875 0.03125 4.601562 0.078125 4.125 0.078125 C 2.6875 0.078125 1.453125 -0.367188 0.421875 -1.265625 L 0.875 -2 C 1.039062 -1.820312 1.238281 -1.65625 1.46875 -1.5 C 1.695312 -1.351562 1.953125 -1.21875 2.234375 -1.09375 C 2.515625 -0.976562 2.8125 -0.890625 3.125 -0.828125 C 3.445312 -0.765625 3.785156 -0.734375 4.140625 -0.734375 C 4.878906 -0.734375 5.453125 -0.863281 5.859375 -1.125 C 6.273438 -1.382812 6.484375 -1.785156 6.484375 -2.328125 C 6.484375 -2.609375 6.425781 -2.847656 6.3125 -3.046875 C 6.195312 -3.242188 6.019531 -3.410156 5.78125 -3.546875 C 5.550781 -3.691406 5.257812 -3.816406 4.90625 -3.921875 C 4.5625 -4.023438 4.160156 -4.128906 3.703125 -4.234375 C 3.222656 -4.347656 2.800781 -4.460938 2.4375 -4.578125 C 2.070312 -4.703125 1.757812 -4.851562 1.5 -5.03125 C 1.25 -5.21875 1.0625 -5.4375 0.9375 -5.6875 C 0.8125 -5.945312 0.75 -6.265625 0.75 -6.640625 C 0.75 -7.066406 0.828125 -7.445312 0.984375 -7.78125 C 1.148438 -8.113281 1.378906 -8.390625 1.671875 -8.609375 C 1.972656 -8.828125 2.320312 -8.992188 2.71875 -9.109375 C 3.113281 -9.234375 3.554688 -9.296875 4.046875 -9.296875 C 4.660156 -9.296875 5.207031 -9.203125 5.6875 -9.015625 C 6.164062 -8.828125 6.601562 -8.566406 7 -8.234375 Z M 6.546875 -7.5 "/></g></g></g><g fill="rgb(100%, 100%, 100%)" fill-opacity="1"><g transform="translate(287.916648, 235.086065)"><g/></g></g><g fill="rgb(100%, 100%, 100%)" fill-opacity="1"><g transform="translate(292.42688, 235.086065)"><g><path d="M 7.828125 -1.359375 C 6.960938 -0.410156 5.972656 0.0625 4.859375 0.0625 C 4.234375 0.0625 3.660156 -0.0664062 3.140625 -0.328125 C 2.617188 -0.597656 2.164062 -0.953125 1.78125 -1.390625 C 1.394531 -1.835938 1.09375 -2.34375 0.875 -2.90625 C 0.65625 -3.46875 0.546875 -4.039062 0.546875 -4.625 C 0.546875 -5.238281 0.648438 -5.828125 0.859375 -6.390625 C 1.078125 -6.953125 1.375 -7.445312 1.75 -7.875 C 2.132812 -8.3125 2.585938 -8.65625 3.109375 -8.90625 C 3.628906 -9.164062 4.195312 -9.296875 4.8125 -9.296875 C 5.257812 -9.296875 5.671875 -9.242188 6.046875 -9.140625 C 6.421875 -9.046875 6.75 -8.910156 7.03125 -8.734375 C 7.320312 -8.554688 7.570312 -8.34375 7.78125 -8.09375 C 8 -7.84375 8.179688 -7.570312 8.328125 -7.28125 L 7.625 -6.8125 C 7.320312 -7.382812 6.925781 -7.800781 6.4375 -8.0625 C 5.957031 -8.332031 5.410156 -8.46875 4.796875 -8.46875 C 4.285156 -8.46875 3.820312 -8.359375 3.40625 -8.140625 C 3 -7.929688 2.648438 -7.644531 2.359375 -7.28125 C 2.066406 -6.925781 1.84375 -6.515625 1.6875 -6.046875 C 1.53125 -5.585938 1.453125 -5.109375 1.453125 -4.609375 C 1.453125 -4.085938 1.539062 -3.59375 1.71875 -3.125 C 1.894531 -2.664062 2.140625 -2.257812 2.453125 -1.90625 C 2.765625 -1.550781 3.128906 -1.269531 3.546875 -1.0625 C 3.972656 -0.851562 4.429688 -0.75 4.921875 -0.75 C 5.453125 -0.75 5.957031 -0.875 6.4375 -1.125 C 6.914062 -1.375 7.378906 -1.765625 7.828125 -2.296875 L 7.828125 -3.828125 L 5.765625 -3.828125 L 5.765625 -4.53125 L 8.59375 -4.53125 L 8.59375 0 L 7.828125 0 Z M 7.828125 -1.359375 "/></g></g></g><g fill="rgb(100%, 100%, 100%)" fill-opacity="1"><g transform="translate(302.928695, 235.086065)"><g><path d="M 1.15625 0 L 1.15625 -9.234375 L 5.0625 -9.234375 C 5.457031 -9.234375 5.820312 -9.144531 6.15625 -8.96875 C 6.488281 -8.800781 6.773438 -8.582031 7.015625 -8.3125 C 7.265625 -8.039062 7.453125 -7.726562 7.578125 -7.375 C 7.710938 -7.03125 7.78125 -6.679688 7.78125 -6.328125 C 7.78125 -5.992188 7.726562 -5.671875 7.625 -5.359375 C 7.53125 -5.054688 7.394531 -4.78125 7.21875 -4.53125 C 7.039062 -4.28125 6.828125 -4.070312 6.578125 -3.90625 C 6.328125 -3.738281 6.046875 -3.625 5.734375 -3.5625 L 8 0 L 6.96875 0 L 4.796875 -3.40625 L 2.0625 -3.40625 L 2.0625 0 Z M 2.0625 -4.21875 L 5.078125 -4.21875 C 5.347656 -4.21875 5.59375 -4.273438 5.8125 -4.390625 C 6.039062 -4.503906 6.226562 -4.660156 6.375 -4.859375 C 6.53125 -5.054688 6.648438 -5.28125 6.734375 -5.53125 C 6.828125 -5.789062 6.875 -6.054688 6.875 -6.328125 C 6.875 -6.609375 6.820312 -6.875 6.71875 -7.125 C 6.625 -7.382812 6.492188 -7.609375 6.328125 -7.796875 C 6.160156 -7.992188 5.957031 -8.144531 5.71875 -8.25 C 5.488281 -8.363281 5.25 -8.421875 5 -8.421875 L 2.0625 -8.421875 Z M 2.0625 -4.21875 "/></g></g></g><g fill="rgb(100%, 100%, 100%)" fill-opacity="1"><g transform="translate(312.611698, 235.086065)"><g><path d="M 4.90625 -0.75 C 5.476562 -0.75 5.957031 -0.859375 6.34375 -1.078125 C 6.726562 -1.304688 7.035156 -1.597656 7.265625 -1.953125 C 7.503906 -2.316406 7.664062 -2.726562 7.75 -3.1875 C 7.84375 -3.644531 7.890625 -4.109375 7.890625 -4.578125 L 7.890625 -9.234375 L 8.796875 -9.234375 L 8.796875 -4.578125 C 8.796875 -3.953125 8.726562 -3.359375 8.59375 -2.796875 C 8.457031 -2.242188 8.234375 -1.753906 7.921875 -1.328125 C 7.617188 -0.898438 7.21875 -0.5625 6.71875 -0.3125 C 6.226562 -0.0625 5.625 0.0625 4.90625 0.0625 C 4.1875 0.0625 3.578125 -0.0664062 3.078125 -0.328125 C 2.578125 -0.597656 2.175781 -0.945312 1.875 -1.375 C 1.570312 -1.8125 1.351562 -2.304688 1.21875 -2.859375 C 1.09375 -3.410156 1.03125 -3.984375 1.03125 -4.578125 L 1.03125 -9.234375 L 1.921875 -9.234375 L 1.921875 -4.578125 C 1.921875 -4.085938 1.96875 -3.613281 2.0625 -3.15625 C 2.15625 -2.695312 2.316406 -2.289062 2.546875 -1.9375 C 2.785156 -1.582031 3.09375 -1.296875 3.46875 -1.078125 C 3.851562 -0.859375 4.332031 -0.75 4.90625 -0.75 Z M 4.90625 -0.75 "/></g></g></g><g fill="rgb(100%, 100%, 100%)" fill-opacity="1"><g transform="translate(323.620395, 235.086065)"><g><path d="M 7.703125 -8.421875 L 4.421875 -8.421875 L 4.421875 0 L 3.515625 0 L 3.515625 -8.421875 L 0.21875 -8.421875 L 0.21875 -9.234375 L 7.703125 -9.234375 Z M 7.703125 -8.421875 "/></g></g></g><g fill="rgb(100%, 100%, 100%)" fill-opacity="1"><g transform="translate(332.74454, 235.086065)"><g><path d="M 4.015625 -9.234375 L 4.78125 -9.234375 L 8.625 0 L 7.65625 0 L 6.46875 -2.890625 L 2.3125 -2.890625 L 1.125 0 L 0.15625 0 Z M 6.25 -3.59375 L 4.390625 -8.15625 L 2.515625 -3.59375 Z M 6.25 -3.59375 "/></g></g></g><g fill="rgb(100%, 100%, 100%)" fill-opacity="1"><g transform="translate(342.726473, 235.086065)"><g><path d="M 6.546875 -7.5 C 6.285156 -7.789062 5.9375 -8.023438 5.5 -8.203125 C 5.070312 -8.390625 4.582031 -8.484375 4.03125 -8.484375 C 3.21875 -8.484375 2.625 -8.328125 2.25 -8.015625 C 1.875 -7.710938 1.6875 -7.296875 1.6875 -6.765625 C 1.6875 -6.492188 1.734375 -6.269531 1.828125 -6.09375 C 1.929688 -5.914062 2.085938 -5.757812 2.296875 -5.625 C 2.503906 -5.5 2.769531 -5.382812 3.09375 -5.28125 C 3.425781 -5.1875 3.8125 -5.09375 4.25 -5 C 4.738281 -4.894531 5.179688 -4.773438 5.578125 -4.640625 C 5.972656 -4.515625 6.304688 -4.351562 6.578125 -4.15625 C 6.859375 -3.96875 7.070312 -3.734375 7.21875 -3.453125 C 7.375 -3.179688 7.453125 -2.835938 7.453125 -2.421875 C 7.453125 -1.992188 7.367188 -1.625 7.203125 -1.3125 C 7.035156 -1 6.804688 -0.738281 6.515625 -0.53125 C 6.222656 -0.320312 5.867188 -0.164062 5.453125 -0.0625 C 5.046875 0.03125 4.601562 0.078125 4.125 0.078125 C 2.6875 0.078125 1.453125 -0.367188 0.421875 -1.265625 L 0.875 -2 C 1.039062 -1.820312 1.238281 -1.65625 1.46875 -1.5 C 1.695312 -1.351562 1.953125 -1.21875 2.234375 -1.09375 C 2.515625 -0.976562 2.8125 -0.890625 3.125 -0.828125 C 3.445312 -0.765625 3.785156 -0.734375 4.140625 -0.734375 C 4.878906 -0.734375 5.453125 -0.863281 5.859375 -1.125 C 6.273438 -1.382812 6.484375 -1.785156 6.484375 -2.328125 C 6.484375 -2.609375 6.425781 -2.847656 6.3125 -3.046875 C 6.195312 -3.242188 6.019531 -3.410156 5.78125 -3.546875 C 5.550781 -3.691406 5.257812 -3.816406 4.90625 -3.921875 C 4.5625 -4.023438 4.160156 -4.128906 3.703125 -4.234375 C 3.222656 -4.347656 2.800781 -4.460938 2.4375 -4.578125 C 2.070312 -4.703125 1.757812 -4.851562 1.5 -5.03125 C 1.25 -5.21875 1.0625 -5.4375 0.9375 -5.6875 C 0.8125 -5.945312 0.75 -6.265625 0.75 -6.640625 C 0.75 -7.066406 0.828125 -7.445312 0.984375 -7.78125 C 1.148438 -8.113281 1.378906 -8.390625 1.671875 -8.609375 C 1.972656 -8.828125 2.320312 -8.992188 2.71875 -9.109375 C 3.113281 -9.234375 3.554688 -9.296875 4.046875 -9.296875 C 4.660156 -9.296875 5.207031 -9.203125 5.6875 -9.015625 C 6.164062 -8.828125 6.601562 -8.566406 7 -8.234375 Z M 6.546875 -7.5 "/></g></g></g></svg>