<svg xmlns="http://www.w3.org/2000/svg" xmlns:xlink="http://www.w3.org/1999/xlink" width="205" zoomAndPan="magnify" viewBox="0 0 153.75 599.999999" height="800" preserveAspectRatio="xMidYMid meet" version="1.0"><defs><g/><clipPath id="id1"><path d="M 37.566406 21.4375 L 114.816406 21.4375 L 114.816406 70.1875 L 37.566406 70.1875 Z M 37.566406 21.4375 " clip-rule="nonzero"/></clipPath><clipPath id="id2"><path d="M 57 192 L 96 192 L 96 223.398438 L 57 223.398438 Z M 57 192 " clip-rule="nonzero"/></clipPath><clipPath id="id3"><path d="M 50.296875 182.148438 L 102.796875 182.148438 L 102.796875 197 L 50.296875 197 Z M 50.296875 182.148438 " clip-rule="nonzero"/></clipPath><clipPath id="id4"><path d="M 72 215 L 81 215 L 81 223.398438 L 72 223.398438 Z M 72 215 " clip-rule="nonzero"/></clipPath><clipPath id="id5"><path d="M 28.589844 516.546875 L 131.339844 516.546875 L 131.339844 581.046875 L 28.589844 581.046875 Z M 28.589844 516.546875 " clip-rule="nonzero"/></clipPath><clipPath id="id6"><path d="M 62 290 L 92 290 L 92 319.386719 L 62 319.386719 Z M 62 290 " clip-rule="nonzero"/></clipPath><clipPath id="id7"><path d="M 55.132812 434.515625 L 116.878906 434.515625 L 116.878906 464.96875 L 55.132812 464.96875 Z M 55.132812 434.515625 " clip-rule="nonzero"/></clipPath><clipPath id="id8"><path d="M 84.296875 460.554688 L 107 460.554688 L 107 498.875 L 84.296875 498.875 Z M 84.296875 460.554688 " clip-rule="nonzero"/></clipPath><clipPath id="id9"><path d="M 37.566406 337.976562 L 127.566406 337.976562 L 127.566406 403.976562 L 37.566406 403.976562 Z M 37.566406 337.976562 " clip-rule="nonzero"/></clipPath><clipPath id="id10"><path d="M 35.878906 100.753906 L 113.128906 100.753906 L 113.128906 155.503906 L 35.878906 155.503906 Z M 35.878906 100.753906 " clip-rule="nonzero"/></clipPath></defs><path fill="rgb(100%, 100%, 100%)" d="M 4.382812 4.246094 L 147.632812 4.246094 L 147.632812 596.742188 L 4.382812 596.742188 L 4.382812 4.246094 " fill-opacity="1" fill-rule="nonzero"/><g fill="rgb(100%, 100%, 100%)" fill-opacity="1"><g transform="translate(76.124536, 311.742692)"><g/></g></g><g clip-path="url(#id1)"><path fill="rgb(0%, 0%, 0%)" d="M 90.234375 42.328125 C 96.046875 42.328125 100.734375 37.648438 100.734375 31.882812 C 100.734375 26.121094 96.046875 21.4375 90.234375 21.4375 C 84.425781 21.4375 79.703125 26.121094 79.703125 31.882812 C 79.703125 37.648438 84.425781 42.328125 90.234375 42.328125 Z M 62.148438 42.328125 C 67.957031 42.328125 72.644531 37.648438 72.644531 31.882812 C 72.644531 26.121094 67.957031 21.4375 62.148438 21.4375 C 56.335938 21.4375 51.613281 26.121094 51.613281 31.882812 C 51.613281 37.648438 56.335938 42.328125 62.148438 42.328125 Z M 62.148438 49.292969 C 53.949219 49.292969 37.570312 53.367188 37.570312 61.480469 L 37.570312 70.1875 L 86.726562 70.1875 L 86.726562 61.480469 C 86.726562 53.367188 70.34375 49.292969 62.148438 49.292969 Z M 90.234375 49.292969 C 89.21875 49.292969 88.078125 49.363281 86.847656 49.484375 C 90.921875 52.394531 93.746094 56.3125 93.746094 61.480469 L 93.746094 70.1875 L 114.8125 70.1875 L 114.8125 61.480469 C 114.8125 53.367188 98.433594 49.292969 90.234375 49.292969 Z M 90.234375 49.292969 " fill-opacity="1" fill-rule="nonzero"/></g><g clip-path="url(#id2)"><path fill="rgb(0%, 0%, 0%)" d="M 61.398438 204.019531 C 65.605469 199.957031 70.652344 197.78125 76.558594 197.78125 C 82.460938 197.785156 87.503906 199.964844 91.679688 204.003906 C 92.917969 202.777344 94.144531 201.5625 95.367188 200.351562 C 84.832031 189.734375 67.65625 190.203125 57.71875 200.371094 C 58.9375 201.582031 60.160156 202.789062 61.398438 204.019531 Z M 68.753906 211.410156 C 70.933594 209.304688 73.519531 208.167969 76.550781 208.167969 C 79.585938 208.167969 82.175781 209.308594 84.289062 211.355469 C 85.539062 210.117188 86.761719 208.902344 87.984375 207.6875 C 81.320312 201.039062 70.878906 201.722656 65.078125 207.742188 C 65.101562 207.769531 65.117188 207.796875 65.140625 207.820312 C 66.339844 209.007812 67.535156 210.195312 68.753906 211.410156 Z M 80.777344 219.191406 C 80.78125 216.875 78.902344 215.003906 76.578125 215.007812 C 74.269531 215.007812 72.382812 216.875 72.375 219.171875 C 72.367188 221.480469 74.25 223.363281 76.570312 223.367188 C 78.898438 223.371094 80.777344 221.507812 80.777344 219.191406 Z M 80.777344 219.191406 " fill-opacity="1" fill-rule="nonzero"/></g><g clip-path="url(#id3)"><path fill="rgb(0%, 0%, 0%)" d="M 102.800781 193.097656 C 102.726562 193.15625 102.644531 193.203125 102.582031 193.265625 C 101.496094 194.34375 100.414062 195.421875 99.332031 196.503906 C 99.265625 196.570312 99.21875 196.65625 99.15625 196.742188 C 92.824219 190.636719 85.332031 187.398438 76.550781 187.398438 C 67.773438 187.398438 60.289062 190.632812 53.980469 196.703125 C 53.921875 196.648438 53.851562 196.582031 53.789062 196.519531 C 52.699219 195.433594 51.609375 194.351562 50.519531 193.265625 C 50.453125 193.203125 50.371094 193.15625 50.296875 193.097656 C 50.296875 193.0625 50.296875 193.027344 50.296875 192.992188 C 50.367188 192.941406 50.4375 192.894531 50.5 192.835938 C 51.816406 191.558594 53.207031 190.363281 54.695312 189.285156 C 58.625 186.429688 62.949219 184.40625 67.671875 183.246094 C 69.738281 182.738281 71.832031 182.398438 73.957031 182.273438 C 74.375 182.246094 74.792969 182.207031 75.210938 182.171875 C 76.101562 182.171875 76.996094 182.171875 77.890625 182.171875 C 77.949219 182.183594 78.007812 182.203125 78.066406 182.207031 C 79.148438 182.300781 80.230469 182.371094 81.308594 182.492188 C 83.511719 182.738281 85.664062 183.230469 87.773438 183.902344 C 93.285156 185.664062 98.125 188.550781 102.292969 192.550781 C 102.457031 192.703125 102.632812 192.847656 102.800781 192.992188 C 102.800781 193.027344 102.800781 193.0625 102.800781 193.097656 Z M 102.800781 193.097656 " fill-opacity="1" fill-rule="nonzero"/></g><path fill="rgb(0%, 0%, 0%)" d="M 61.398438 204.019531 C 60.160156 202.789062 58.9375 201.582031 57.71875 200.371094 C 67.65625 190.203125 84.832031 189.734375 95.367188 200.351562 C 94.144531 201.5625 92.917969 202.777344 91.679688 204.003906 C 87.503906 199.964844 82.460938 197.785156 76.558594 197.78125 C 70.652344 197.78125 65.605469 199.957031 61.398438 204.019531 Z M 61.398438 204.019531 " fill-opacity="1" fill-rule="nonzero"/><path fill="rgb(0%, 0%, 0%)" d="M 68.753906 211.410156 C 67.535156 210.195312 66.339844 209.007812 65.140625 207.820312 C 65.117188 207.796875 65.101562 207.769531 65.078125 207.742188 C 70.878906 201.722656 81.320312 201.039062 87.984375 207.6875 C 86.761719 208.902344 85.539062 210.117188 84.289062 211.355469 C 82.175781 209.308594 79.585938 208.167969 76.550781 208.167969 C 73.519531 208.167969 70.933594 209.304688 68.753906 211.410156 Z M 68.753906 211.410156 " fill-opacity="1" fill-rule="nonzero"/><g clip-path="url(#id4)"><path fill="rgb(0%, 0%, 0%)" d="M 80.777344 219.191406 C 80.777344 221.507812 78.898438 223.371094 76.570312 223.367188 C 74.25 223.363281 72.367188 221.480469 72.375 219.171875 C 72.382812 216.875 74.269531 215.007812 76.578125 215.007812 C 78.902344 215.003906 80.78125 216.875 80.777344 219.191406 Z M 80.777344 219.191406 " fill-opacity="1" fill-rule="nonzero"/></g><g clip-path="url(#id5)"><path fill="rgb(10.198975%, 10.198975%, 10.198975%)" d="M 31.476562 516.542969 C 29.886719 516.542969 28.609375 517.820312 28.609375 519.40625 L 28.609375 570.066406 C 28.609375 571.652344 29.886719 572.925781 31.476562 572.925781 L 74.910156 572.925781 C 73.78125 574.613281 72.515625 576.773438 72.300781 578.226562 L 67.117188 578.226562 C 66.910156 578.226562 66.738281 578.394531 66.738281 578.605469 L 66.738281 580.667969 C 66.738281 580.875 66.910156 581.046875 67.117188 581.046875 L 92.808594 581.046875 C 93.019531 581.046875 93.1875 580.875 93.1875 580.667969 L 93.1875 578.605469 C 93.1875 578.394531 93.019531 578.226562 92.808594 578.226562 L 87.625 578.226562 C 87.410156 576.773438 86.144531 574.613281 85.015625 572.925781 L 128.453125 572.925781 C 130.039062 572.925781 131.320312 571.652344 131.320312 570.066406 L 131.320312 519.40625 C 131.320312 517.820312 130.039062 516.542969 128.453125 516.542969 Z M 30.917969 519.601562 L 129.007812 519.601562 L 129.007812 569.867188 L 30.917969 569.867188 Z M 30.917969 519.601562 " fill-opacity="1" fill-rule="nonzero"/></g><path fill="rgb(0%, 0%, 0%)" d="M 79.949219 293.925781 C 75.261719 293.925781 71.449219 290.121094 71.449219 285.441406 C 71.449219 280.765625 75.261719 276.960938 79.949219 276.960938 C 84.632812 276.960938 88.445312 280.765625 88.445312 285.441406 C 88.445312 290.121094 84.632812 293.925781 79.949219 293.925781 Z M 79.949219 279.789062 C 76.824219 279.789062 74.285156 282.324219 74.285156 285.441406 C 74.285156 288.5625 76.824219 291.097656 79.949219 291.097656 C 83.074219 291.097656 85.613281 288.5625 85.613281 285.441406 C 85.613281 282.324219 83.074219 279.789062 79.949219 279.789062 Z M 79.949219 279.789062 " fill-opacity="1" fill-rule="nonzero"/><g clip-path="url(#id6)"><path fill="rgb(0%, 0%, 0%)" d="M 75.144531 319.382812 C 71.972656 319.382812 68.894531 318.886719 66.660156 317.757812 C 63.597656 316.203125 62.953125 313.945312 62.953125 312.324219 C 62.953125 309.375 64.710938 308.089844 66.75 306.601562 C 69.640625 304.488281 73.597656 301.59375 76.800781 291.816406 C 77.035156 291.101562 77.789062 290.683594 78.507812 290.886719 C 79.855469 291.234375 80.71875 291.148438 81.855469 290.742188 C 82.390625 290.546875 82.988281 290.695312 83.375 291.109375 C 86.898438 294.910156 91.816406 303.585938 91.183594 310.140625 C 90.925781 312.804688 89.8125 314.878906 87.867188 316.296875 C 85.292969 318.171875 80.101562 319.382812 75.144531 319.382812 Z M 79.089844 293.875 C 75.664062 303.59375 71.328125 306.761719 68.421875 308.886719 C 66.464844 310.3125 65.785156 310.882812 65.785156 312.324219 C 65.785156 312.773438 65.785156 314.144531 67.941406 315.230469 C 72.574219 317.578125 82.773438 316.507812 86.195312 314.011719 C 87.472656 313.074219 88.183594 311.71875 88.363281 309.863281 C 88.859375 304.734375 85.074219 297.484375 81.875 293.683594 C 80.941406 293.921875 80.054688 293.992188 79.089844 293.875 Z M 79.089844 293.875 " fill-opacity="1" fill-rule="nonzero"/></g><path fill="rgb(0%, 0%, 0%)" d="M 56.40625 296.753906 C 56.003906 296.753906 55.613281 296.734375 55.222656 296.699219 C 52.550781 296.441406 50.472656 295.328125 49.050781 293.382812 C 45.960938 289.171875 44.675781 277.933594 47.582031 272.214844 C 49.136719 269.15625 51.398438 268.511719 53.023438 268.511719 C 55.976562 268.511719 57.265625 270.269531 58.753906 272.300781 C 60.871094 275.191406 63.769531 279.136719 73.554688 282.335938 C 74.265625 282.566406 74.675781 283.3125 74.488281 284.03125 C 74.347656 284.574219 74.285156 285.019531 74.285156 285.441406 C 74.285156 286.066406 74.402344 286.699219 74.648438 287.367188 C 74.84375 287.902344 74.699219 288.503906 74.28125 288.890625 C 70.703125 292.203125 62.800781 296.753906 56.40625 296.753906 Z M 53.023438 271.34375 C 52.574219 271.34375 51.203125 271.34375 50.109375 273.496094 C 47.761719 278.117188 48.832031 288.300781 51.335938 291.71875 C 52.273438 292.996094 53.632812 293.707031 55.492188 293.886719 C 60.601562 294.347656 67.898438 290.601562 71.699219 287.398438 C 71.53125 286.742188 71.449219 286.085938 71.449219 285.441406 C 71.449219 285.175781 71.464844 284.902344 71.5 284.625 C 61.773438 281.203125 58.597656 276.875 56.46875 273.972656 C 55.035156 272.019531 54.46875 271.34375 53.023438 271.34375 Z M 53.023438 271.34375 " fill-opacity="1" fill-rule="nonzero"/><path fill="rgb(0%, 0%, 0%)" d="M 77.550781 280.230469 C 77.164062 280.230469 76.785156 280.074219 76.511719 279.777344 C 72.992188 275.976562 68.082031 267.304688 68.714844 260.761719 C 68.972656 258.097656 70.089844 256.027344 72.03125 254.609375 C 76.25 251.53125 87.507812 250.246094 93.234375 253.144531 C 96.300781 254.699219 96.941406 256.957031 96.941406 258.578125 C 96.941406 261.527344 95.183594 262.816406 93.144531 264.300781 C 90.253906 266.414062 86.296875 269.308594 83.097656 279.070312 C 82.863281 279.777344 82.109375 280.1875 81.390625 280 C 80.042969 279.644531 79.175781 279.734375 78.03125 280.148438 C 77.878906 280.203125 77.714844 280.230469 77.550781 280.230469 Z M 84.792969 254.363281 C 80.445312 254.363281 75.796875 255.359375 73.703125 256.894531 C 72.425781 257.828125 71.714844 259.183594 71.53125 261.035156 C 71.035156 266.15625 74.816406 273.402344 78.015625 277.199219 C 78.949219 276.96875 79.847656 276.898438 80.804688 277.011719 C 84.234375 267.308594 88.566406 264.144531 91.472656 262.019531 C 93.433594 260.589844 94.109375 260.019531 94.109375 258.578125 C 94.109375 258.128906 94.109375 256.761719 91.957031 255.671875 C 90.164062 254.761719 87.539062 254.363281 84.792969 254.363281 Z M 72.867188 255.75 L 72.894531 255.75 Z M 72.867188 255.75 " fill-opacity="1" fill-rule="nonzero"/><path fill="rgb(0%, 0%, 0%)" d="M 106.875 302.410156 C 103.917969 302.410156 102.632812 300.65625 101.140625 298.621094 C 99.023438 295.734375 96.125 291.78125 86.328125 288.582031 C 85.617188 288.351562 85.207031 287.605469 85.402344 286.878906 C 85.546875 286.328125 85.613281 285.871094 85.613281 285.441406 C 85.613281 284.828125 85.496094 284.207031 85.257812 283.539062 C 85.066406 283.003906 85.210938 282.410156 85.628906 282.023438 C 89.429688 278.507812 98.128906 273.605469 104.679688 274.226562 C 107.351562 274.484375 109.433594 275.597656 110.851562 277.535156 C 113.9375 281.746094 115.222656 292.984375 112.316406 298.707031 C 110.761719 301.769531 108.496094 302.410156 106.875 302.410156 Z M 88.390625 286.296875 C 98.125 289.722656 101.296875 294.046875 103.425781 296.953125 C 104.859375 298.90625 105.429688 299.585938 106.875 299.585938 C 107.324219 299.585938 108.695312 299.585938 109.785156 297.433594 C 112.136719 292.808594 111.0625 282.625 108.5625 279.210938 C 107.625 277.933594 106.265625 277.222656 104.40625 277.042969 C 99.273438 276.535156 92.003906 280.332031 88.207031 283.527344 C 88.371094 284.171875 88.445312 284.804688 88.445312 285.441406 C 88.445312 285.722656 88.429688 286.007812 88.390625 286.296875 Z M 88.390625 286.296875 " fill-opacity="1" fill-rule="nonzero"/><g clip-path="url(#id7)"><path fill="rgb(12.939453%, 12.939453%, 12.939453%)" d="M 96.789062 464.894531 L 96.789062 464.898438 C 96.75 464.898438 96.714844 464.898438 96.675781 464.894531 C 90.285156 465.078125 84.695312 463.425781 79.472656 461.882812 C 71.527344 459.535156 64.484375 457.453125 57.203125 463.152344 C 56.652344 463.585938 55.859375 463.484375 55.429688 462.929688 C 55.25 462.699219 55.164062 462.421875 55.164062 462.152344 L 55.164062 437.273438 C 55.164062 436.570312 55.730469 436.003906 56.429688 436.003906 C 56.734375 436.003906 57.011719 436.113281 57.230469 436.292969 C 64.503906 441.964844 71.539062 439.886719 79.472656 437.542969 C 84.726562 435.992188 90.351562 434.328125 96.789062 434.53125 L 96.789062 434.527344 C 96.824219 434.527344 96.863281 434.53125 96.898438 434.535156 C 106.230469 434.859375 112.308594 438.582031 115.101562 443.304688 C 116.289062 445.320312 116.886719 447.515625 116.886719 449.710938 C 116.886719 451.910156 116.289062 454.105469 115.101562 456.121094 C 112.296875 460.863281 106.183594 464.597656 96.789062 464.894531 Z M 80.183594 459.449219 C 85.226562 460.9375 90.621094 462.53125 96.609375 462.363281 C 96.640625 462.359375 96.675781 462.359375 96.707031 462.355469 L 96.746094 463.628906 L 96.714844 462.359375 C 105.132812 462.097656 110.527344 458.890625 112.929688 454.828125 C 113.882812 453.214844 114.359375 451.460938 114.359375 449.710938 C 114.359375 447.960938 113.882812 446.210938 112.929688 444.59375 C 110.539062 440.546875 105.171875 437.351562 96.808594 437.066406 C 96.773438 437.066406 96.742188 437.066406 96.707031 437.066406 L 96.746094 435.796875 L 96.707031 437.0625 C 90.683594 436.875 85.253906 438.476562 80.183594 439.976562 C 72.289062 442.308594 65.214844 444.398438 57.691406 439.707031 L 57.691406 459.714844 C 65.214844 455.027344 72.289062 457.113281 80.183594 459.449219 " fill-opacity="1" fill-rule="nonzero"/></g><path fill="rgb(12.939453%, 12.939453%, 12.939453%)" d="M 55.164062 438.546875 L 51.613281 438.546875 L 51.613281 460.875 L 55.164062 460.875 Z M 50.347656 436.003906 L 56.429688 436.003906 C 57.125 436.003906 57.691406 436.570312 57.691406 437.273438 L 57.691406 462.148438 C 57.691406 462.847656 57.125 463.417969 56.429688 463.417969 L 50.347656 463.417969 C 49.652344 463.417969 49.085938 462.847656 49.085938 462.148438 L 49.085938 437.273438 C 49.085938 436.570312 49.652344 436.003906 50.347656 436.003906 " fill-opacity="1" fill-rule="nonzero"/><g clip-path="url(#id8)"><path fill="rgb(12.939453%, 12.939453%, 12.939453%)" d="M 106.957031 461.988281 C 106.957031 461.285156 106.390625 460.71875 105.695312 460.71875 C 104.996094 460.71875 104.433594 461.285156 104.433594 461.988281 L 104.433594 496.332031 L 87.132812 496.332031 C 86.683594 490.714844 87.835938 487.890625 89.289062 484.332031 C 91.011719 480.105469 93.132812 474.910156 93.734375 463.550781 C 93.769531 462.851562 93.234375 462.257812 92.539062 462.21875 C 91.84375 462.183594 91.253906 462.722656 91.21875 463.421875 C 90.640625 474.351562 88.609375 479.324219 86.960938 483.367188 C 85.28125 487.484375 83.972656 490.699219 84.726562 497.664062 C 84.757812 498.335938 85.308594 498.875 85.988281 498.875 L 105.695312 498.875 C 106.390625 498.875 106.957031 498.304688 106.957031 497.601562 L 106.957031 461.988281 " fill-opacity="1" fill-rule="nonzero"/></g><path fill="rgb(12.939453%, 12.939453%, 12.939453%)" d="M 98 441.828125 C 100.164062 441.828125 102.121094 442.710938 103.539062 444.136719 C 104.957031 445.566406 105.832031 447.535156 105.832031 449.710938 C 105.832031 451.886719 104.957031 453.859375 103.539062 455.285156 C 102.121094 456.710938 100.164062 457.59375 98 457.59375 C 95.835938 457.59375 93.878906 456.710938 92.460938 455.285156 C 91.046875 453.859375 90.167969 451.886719 90.167969 449.710938 C 90.167969 447.535156 91.046875 445.566406 92.460938 444.136719 C 93.878906 442.710938 95.835938 441.828125 98 441.828125 Z M 101.75 445.9375 C 100.792969 444.96875 99.464844 444.371094 98 444.371094 C 96.535156 444.371094 95.207031 444.96875 94.25 445.9375 C 93.289062 446.902344 92.695312 448.238281 92.695312 449.710938 C 92.695312 451.1875 93.289062 452.523438 94.25 453.488281 C 95.207031 454.453125 96.535156 455.050781 98 455.050781 C 99.464844 455.050781 100.792969 454.453125 101.75 453.488281 C 102.710938 452.523438 103.304688 451.1875 103.304688 449.710938 C 103.304688 448.238281 102.710938 446.902344 101.75 445.9375 " fill-opacity="1" fill-rule="nonzero"/><path fill="rgb(12.939453%, 12.939453%, 12.939453%)" d="M 81.308594 448.113281 L 64.640625 448.113281 L 64.640625 445.570312 L 81.308594 445.570312 L 81.308594 448.113281 " fill-opacity="1" fill-rule="nonzero"/><path fill="rgb(12.939453%, 12.939453%, 12.939453%)" d="M 81.308594 453.855469 L 64.640625 453.855469 L 64.640625 451.3125 L 81.308594 451.3125 L 81.308594 453.855469 " fill-opacity="1" fill-rule="nonzero"/><path fill="rgb(12.939453%, 12.939453%, 12.939453%)" d="M 89.214844 468.679688 L 91.996094 468.679688 L 91.996094 466.199219 L 89.214844 466.199219 L 89.214844 468.679688 " fill-opacity="1" fill-rule="evenodd"/><path fill="rgb(12.939453%, 12.939453%, 12.939453%)" d="M 46.222656 444.671875 C 46.804688 444.285156 46.964844 443.496094 46.578125 442.914062 C 46.195312 442.328125 45.414062 442.167969 44.832031 442.554688 C 43.957031 443.136719 42.71875 442.804688 41.496094 442.476562 C 39.898438 442.046875 38.324219 441.621094 36.71875 442.496094 C 36.105469 442.828125 35.875 443.597656 36.207031 444.214844 C 36.535156 444.832031 37.300781 445.0625 37.914062 444.730469 C 38.640625 444.335938 39.734375 444.628906 40.847656 444.929688 C 42.609375 445.402344 44.398438 445.882812 46.222656 444.671875 " fill-opacity="1" fill-rule="nonzero"/><path fill="rgb(12.939453%, 12.939453%, 12.939453%)" d="M 46.222656 450.671875 C 46.804688 450.285156 46.964844 449.5 46.578125 448.914062 C 46.195312 448.332031 45.414062 448.171875 44.832031 448.558594 C 43.957031 449.140625 42.71875 448.804688 41.496094 448.476562 C 39.898438 448.046875 38.324219 447.625 36.71875 448.5 C 36.105469 448.832031 35.875 449.597656 36.207031 450.214844 C 36.535156 450.832031 37.300781 451.0625 37.914062 450.734375 C 38.640625 450.335938 39.734375 450.632812 40.847656 450.929688 C 42.609375 451.40625 44.398438 451.886719 46.222656 450.671875 " fill-opacity="1" fill-rule="nonzero"/><path fill="rgb(12.939453%, 12.939453%, 12.939453%)" d="M 46.222656 456.675781 C 46.804688 456.289062 46.964844 455.503906 46.578125 454.917969 C 46.195312 454.335938 45.414062 454.171875 44.832031 454.5625 C 43.957031 455.140625 42.714844 454.808594 41.496094 454.480469 C 39.898438 454.050781 38.324219 453.625 36.71875 454.5 C 36.105469 454.832031 35.875 455.601562 36.207031 456.21875 C 36.535156 456.835938 37.300781 457.066406 37.914062 456.734375 C 38.640625 456.339844 39.734375 456.632812 40.847656 456.933594 C 42.605469 457.40625 44.398438 457.890625 46.222656 456.675781 " fill-opacity="1" fill-rule="nonzero"/><g clip-path="url(#id9)"><path fill="rgb(12.939453%, 11.369324%, 11.369324%)" d="M 121.980469 382.6875 C 119.65625 382.953125 116.191406 383.082031 111.390625 383.082031 L 83.339844 383.082031 C 83.296875 383.082031 83.253906 383.089844 83.207031 383.09375 C 78.421875 380.152344 74.59375 377.828125 73.695312 377.285156 L 73.695312 374.507812 C 77.277344 373.515625 79.878906 370.453125 80.269531 366.78125 C 80.304688 366.765625 80.34375 366.75 80.378906 366.726562 C 83.292969 364.890625 88.890625 361.394531 90.773438 360.21875 C 103.164062 367.726562 122.917969 379.960938 125.085938 381.988281 C 124.816406 382.144531 124.050781 382.453125 121.980469 382.6875 Z M 106.972656 400.898438 C 106.988281 400.957031 106.976562 400.972656 106.964844 400.992188 C 106.726562 401.367188 105.453125 401.902344 103.761719 401.902344 L 42.867188 401.902344 C 40.261719 401.902344 39.867188 401.226562 39.804688 400.648438 C 41.863281 398.460938 60.535156 386.519531 72.566406 379.039062 C 85.152344 386.667969 105.339844 399.171875 106.972656 400.898438 Z M 127.042969 381.109375 C 126.808594 380.625 126.417969 379.8125 108.890625 368.898438 C 101.066406 364.027344 93.238281 359.273438 91.90625 358.460938 L 91.90625 355.6875 C 95.792969 354.609375 98.53125 351.089844 98.53125 347.003906 C 98.53125 342.03125 94.453125 337.984375 89.445312 337.984375 C 84.9375 337.984375 81.160156 341.191406 80.46875 345.605469 C 80.382812 346.175781 80.773438 346.707031 81.347656 346.796875 C 81.917969 346.886719 82.457031 346.496094 82.546875 345.925781 C 83.074219 342.53125 85.976562 340.066406 89.445312 340.066406 C 93.296875 340.066406 96.429688 343.179688 96.429688 347.003906 C 96.429688 350.382812 94 353.253906 90.652344 353.832031 C 90.375 353.878906 90.128906 354.035156 89.96875 354.265625 C 89.808594 354.496094 89.75 354.777344 89.800781 355.050781 L 89.804688 358.363281 C 88.25 359.332031 83.347656 362.394531 80.203125 364.371094 C 79.5 360.085938 75.75 356.804688 71.238281 356.804688 C 66.730469 356.804688 62.957031 360.011719 62.261719 364.429688 C 62.175781 364.996094 62.566406 365.527344 63.140625 365.617188 C 63.714844 365.710938 64.25 365.316406 64.339844 364.75 C 64.871094 361.355469 67.773438 358.890625 71.238281 358.890625 C 75.089844 358.890625 78.222656 362 78.222656 365.824219 C 78.222656 369.203125 75.792969 372.074219 72.445312 372.652344 C 72.171875 372.699219 71.925781 372.855469 71.765625 373.082031 C 71.605469 373.3125 71.542969 373.59375 71.59375 373.867188 L 71.597656 377.183594 C 69.664062 378.386719 62.347656 382.953125 55.113281 387.609375 C 37.667969 398.84375 37.679688 399.5625 37.691406 400.394531 C 37.726562 402.777344 39.46875 403.988281 42.867188 403.988281 L 103.761719 403.988281 C 105.507812 403.988281 107.859375 403.496094 108.738281 402.105469 C 109.160156 401.445312 109.191406 400.675781 108.835938 399.929688 C 108.601562 399.445312 108.210938 398.632812 90.683594 387.71875 C 89.300781 386.855469 87.914062 386 86.566406 385.167969 L 111.390625 385.167969 C 123.351562 385.167969 126.101562 384.410156 126.992188 383.011719 C 127.195312 382.691406 127.476562 382.011719 127.042969 381.109375 " fill-opacity="1" fill-rule="nonzero"/></g><g clip-path="url(#id10)"><path fill="rgb(0%, 0%, 0%)" d="M 106.65625 123.460938 L 106.65625 108.804688 C 106.65625 104.367188 103.046875 100.753906 98.617188 100.753906 L 50.394531 100.753906 C 45.960938 100.753906 42.355469 104.367188 42.355469 108.804688 L 42.355469 123.460938 C 38.695312 124.207031 35.925781 127.460938 35.925781 131.347656 L 35.925781 153.890625 C 35.925781 154.78125 36.644531 155.503906 37.53125 155.503906 C 38.421875 155.503906 39.140625 154.78125 39.140625 153.890625 L 39.140625 149.0625 L 109.871094 149.0625 L 109.871094 153.890625 C 109.871094 154.78125 110.589844 155.503906 111.476562 155.503906 C 112.367188 155.503906 113.085938 154.78125 113.085938 153.890625 L 113.085938 131.347656 C 113.085938 127.460938 110.316406 124.207031 106.65625 123.460938 Z M 45.570312 108.804688 C 45.570312 106.140625 47.734375 103.972656 50.394531 103.972656 L 98.617188 103.972656 C 101.277344 103.972656 103.441406 106.140625 103.441406 108.804688 L 103.441406 123.296875 L 99.015625 123.296875 C 99.332031 122.410156 99.414062 121.453125 99.175781 120.511719 L 97.570312 114.074219 C 97.03125 111.917969 95.105469 110.414062 92.890625 110.414062 L 82.542969 110.414062 C 79.882812 110.414062 77.71875 112.582031 77.71875 115.246094 L 77.71875 121.6875 C 77.71875 122.253906 77.835938 122.789062 78.015625 123.296875 L 70.996094 123.296875 C 71.175781 122.789062 71.289062 122.253906 71.289062 121.6875 L 71.289062 115.246094 C 71.289062 112.582031 69.125 110.414062 66.46875 110.414062 L 56.117188 110.414062 C 53.902344 110.414062 51.976562 111.921875 51.441406 114.074219 L 49.832031 120.511719 C 49.597656 121.453125 49.679688 122.410156 49.996094 123.296875 L 45.570312 123.296875 Z M 80.9375 121.6875 L 80.9375 115.246094 C 80.9375 114.355469 81.65625 113.632812 82.542969 113.632812 L 92.890625 113.632812 C 93.632812 113.632812 94.269531 114.136719 94.453125 114.855469 L 96.058594 121.296875 C 96.179688 121.777344 96.074219 122.285156 95.765625 122.679688 C 95.460938 123.070312 94.996094 123.296875 94.5 123.296875 L 82.542969 123.296875 C 81.65625 123.296875 80.9375 122.574219 80.9375 121.6875 Z M 52.949219 121.292969 L 54.554688 114.851562 C 54.738281 114.136719 55.378906 113.632812 56.117188 113.632812 L 66.464844 113.632812 C 67.351562 113.632812 68.074219 114.351562 68.074219 115.242188 L 68.074219 121.683594 C 68.074219 122.570312 67.351562 123.292969 66.464844 123.292969 L 54.507812 123.292969 C 54.011719 123.292969 53.546875 123.066406 53.242188 122.675781 C 52.9375 122.28125 52.828125 121.777344 52.949219 121.292969 Z M 39.140625 131.347656 C 39.140625 128.683594 41.304688 126.515625 43.964844 126.515625 L 105.046875 126.515625 C 107.707031 126.515625 109.871094 128.683594 109.871094 131.347656 L 109.871094 139.398438 L 39.140625 139.398438 Z M 39.140625 142.621094 L 109.871094 142.621094 L 109.871094 145.839844 L 39.140625 145.839844 Z M 39.140625 142.621094 " fill-opacity="1" fill-rule="nonzero"/></g></svg>