<svg xmlns="http://www.w3.org/2000/svg" xmlns:xlink="http://www.w3.org/1999/xlink" width="200" zoomAndPan="magnify" viewBox="0 0 150 149.999998" height="200" preserveAspectRatio="xMidYMid meet" version="1.0"><defs><clipPath id="id1"><path d="M 31.824219 31.824219 L 118.074219 31.824219 L 118.074219 118.074219 L 31.824219 118.074219 Z M 31.824219 31.824219 " clip-rule="nonzero"/></clipPath></defs><g clip-path="url(#id1)"><path fill="rgb(100%, 100%, 100%)" d="M 75 31.824219 C 51.257812 31.824219 31.925781 51.140625 31.917969 74.882812 C 31.914062 82.472656 33.902344 89.882812 37.671875 96.414062 L 31.824219 118.074219 L 54.390625 112.746094 C 60.683594 116.175781 67.765625 117.980469 74.976562 117.984375 L 74.992188 117.984375 C 98.734375 117.984375 118.054688 98.667969 118.066406 74.925781 C 118.078125 63.414062 113.601562 52.59375 105.46875 44.453125 C 97.332031 36.3125 86.523438 31.832031 75 31.824219 Z M 74.992188 40.449219 C 84.203125 40.457031 92.863281 44.046875 99.367188 50.550781 C 105.875 57.0625 109.453125 65.714844 109.441406 74.917969 C 109.433594 93.910156 93.984375 109.359375 74.984375 109.359375 C 69.234375 109.355469 63.542969 107.910156 58.527344 105.171875 L 55.621094 103.589844 L 52.410156 104.347656 L 43.921875 106.351562 L 45.992188 98.652344 L 46.929688 95.199219 L 45.144531 92.101562 C 42.132812 86.890625 40.539062 80.933594 40.542969 74.882812 C 40.550781 55.898438 56.003906 40.449219 74.992188 40.449219 Z M 59.757812 55.003906 C 59.035156 55.003906 57.871094 55.273438 56.882812 56.351562 C 55.898438 57.425781 53.109375 60.027344 53.109375 65.324219 C 53.109375 70.621094 56.96875 75.738281 57.507812 76.457031 C 58.042969 77.175781 64.953125 88.386719 75.894531 92.699219 C 84.984375 96.28125 86.832031 95.574219 88.808594 95.394531 C 90.78125 95.214844 95.179688 92.792969 96.074219 90.28125 C 96.972656 87.765625 96.976562 85.605469 96.707031 85.160156 C 96.441406 84.710938 95.722656 84.445312 94.644531 83.90625 C 93.570312 83.367188 88.277344 80.765625 87.289062 80.410156 C 86.304688 80.050781 85.582031 79.871094 84.863281 80.949219 C 84.148438 82.027344 82.089844 84.445312 81.460938 85.160156 C 80.832031 85.878906 80.207031 85.976562 79.128906 85.4375 C 78.050781 84.894531 74.585938 83.753906 70.46875 80.089844 C 67.269531 77.238281 65.109375 73.722656 64.480469 72.644531 C 63.855469 71.570312 64.421875 70.980469 64.960938 70.445312 C 65.445312 69.960938 66.03125 69.1875 66.570312 68.558594 C 67.105469 67.929688 67.289062 67.480469 67.648438 66.765625 C 68.007812 66.046875 67.824219 65.417969 67.554688 64.878906 C 67.289062 64.339844 65.195312 59.023438 64.238281 56.890625 C 63.429688 55.101562 62.578125 55.0625 61.8125 55.03125 C 61.1875 55.003906 60.472656 55.003906 59.757812 55.003906 Z M 59.757812 55.003906 " fill-opacity="1" fill-rule="nonzero"/></g></svg>