<svg xmlns="http://www.w3.org/2000/svg" xmlns:xlink="http://www.w3.org/1999/xlink" width="200" zoomAndPan="magnify" viewBox="0 0 150 149.999998" height="200" preserveAspectRatio="xMidYMid meet" version="1.0"><defs><clipPath id="id1"><path d="M 26.675781 26.675781 L 123.425781 26.675781 L 123.425781 123.425781 L 26.675781 123.425781 Z M 26.675781 26.675781 " clip-rule="nonzero"/></clipPath></defs><g clip-path="url(#id1)"><path fill="rgb(100%, 100%, 100%)" d="M 99.160156 26.675781 L 50.863281 26.675781 C 37.578125 26.675781 26.675781 37.578125 26.675781 50.9375 L 26.675781 99.238281 C 26.675781 112.519531 37.578125 123.425781 50.863281 123.425781 L 99.160156 123.425781 C 112.519531 123.425781 123.425781 112.519531 123.425781 99.160156 L 123.425781 50.9375 C 123.425781 37.578125 112.519531 26.675781 99.160156 26.675781 Z M 88.027344 75.050781 L 78.886719 75.050781 L 78.886719 104.996094 L 67.371094 104.996094 L 67.371094 75.050781 L 61.226562 75.050781 L 61.226562 62.761719 L 66.601562 62.761719 L 66.601562 57.542969 C 66.601562 52.628906 69.058594 44.871094 79.425781 44.871094 L 88.871094 44.871094 L 88.871094 55.085938 L 82.191406 55.085938 C 81.113281 55.085938 79.65625 55.777344 79.65625 58.15625 L 79.65625 62.761719 L 89.101562 62.761719 Z M 88.027344 75.050781 " fill-opacity="1" fill-rule="nonzero"/></g></svg>