<svg xmlns="http://www.w3.org/2000/svg" xmlns:xlink="http://www.w3.org/1999/xlink" width="200" zoomAndPan="magnify" viewBox="0 0 150 149.999998" height="200" preserveAspectRatio="xMidYMid meet" version="1.0"><defs><clipPath id="id1"><path d="M 28.371094 28.371094 L 121.371094 28.371094 L 121.371094 121.371094 L 28.371094 121.371094 Z M 28.371094 28.371094 " clip-rule="nonzero"/></clipPath></defs><g clip-path="url(#id1)"><path fill="rgb(100%, 100%, 100%)" d="M 54.203125 28.371094 C 39.9375 28.371094 28.371094 39.9375 28.371094 54.203125 L 28.371094 95.535156 C 28.371094 109.800781 39.9375 121.371094 54.203125 121.371094 L 95.535156 121.371094 C 109.800781 121.371094 121.371094 109.800781 121.371094 95.535156 L 121.371094 54.203125 C 121.371094 39.9375 109.800781 28.371094 95.535156 28.371094 Z M 105.871094 38.703125 C 108.722656 38.703125 111.035156 41.015625 111.035156 43.871094 C 111.035156 46.722656 108.722656 49.035156 105.871094 49.035156 C 103.015625 49.035156 100.703125 46.722656 100.703125 43.871094 C 100.703125 41.015625 103.015625 38.703125 105.871094 38.703125 Z M 74.871094 49.035156 C 89.132812 49.035156 100.703125 60.605469 100.703125 74.871094 C 100.703125 89.132812 89.132812 100.703125 74.871094 100.703125 C 60.605469 100.703125 49.035156 89.132812 49.035156 74.871094 C 49.035156 60.605469 60.605469 49.035156 74.871094 49.035156 Z M 74.871094 59.371094 C 73.851562 59.371094 72.84375 59.46875 71.84375 59.667969 C 70.847656 59.867188 69.878906 60.160156 68.9375 60.550781 C 67.996094 60.9375 67.105469 61.417969 66.257812 61.980469 C 65.410156 62.546875 64.628906 63.191406 63.910156 63.910156 C 63.191406 64.628906 62.546875 65.410156 61.980469 66.257812 C 61.417969 67.105469 60.9375 67.996094 60.550781 68.9375 C 60.160156 69.878906 59.867188 70.847656 59.667969 71.84375 C 59.46875 72.84375 59.371094 73.851562 59.371094 74.871094 C 59.371094 75.886719 59.46875 76.894531 59.667969 77.894531 C 59.867188 78.890625 60.160156 79.859375 60.550781 80.800781 C 60.9375 81.742188 61.417969 82.632812 61.980469 83.480469 C 62.546875 84.328125 63.191406 85.109375 63.910156 85.828125 C 64.628906 86.550781 65.410156 87.191406 66.257812 87.757812 C 67.105469 88.324219 67.996094 88.800781 68.9375 89.191406 C 69.878906 89.578125 70.847656 89.875 71.84375 90.070312 C 72.84375 90.269531 73.851562 90.371094 74.871094 90.371094 C 75.886719 90.371094 76.894531 90.269531 77.894531 90.070312 C 78.890625 89.875 79.859375 89.578125 80.800781 89.191406 C 81.742188 88.800781 82.632812 88.324219 83.480469 87.757812 C 84.328125 87.191406 85.109375 86.550781 85.828125 85.828125 C 86.550781 85.109375 87.191406 84.328125 87.757812 83.480469 C 88.324219 82.632812 88.800781 81.742188 89.191406 80.800781 C 89.578125 79.859375 89.875 78.890625 90.070312 77.894531 C 90.269531 76.894531 90.371094 75.886719 90.371094 74.871094 C 90.371094 73.851562 90.269531 72.84375 90.070312 71.84375 C 89.875 70.847656 89.578125 69.878906 89.191406 68.9375 C 88.800781 67.996094 88.324219 67.105469 87.757812 66.257812 C 87.191406 65.410156 86.550781 64.628906 85.828125 63.910156 C 85.109375 63.191406 84.328125 62.546875 83.480469 61.980469 C 82.632812 61.417969 81.742188 60.9375 80.800781 60.550781 C 79.859375 60.160156 78.890625 59.867188 77.894531 59.667969 C 76.894531 59.46875 75.886719 59.371094 74.871094 59.371094 Z M 74.871094 59.371094 " fill-opacity="1" fill-rule="nonzero"/></g></svg>